<svg xmlns="http://www.w3.org/2000/svg" width="396.69095pt" height="75pt" viewBox="0 0 396.69094 75.000001"><path fill="#2c292a" d="M226.122 11.989H214.66v26.92h11.462v-4.57h8.095v-5.605h-8.095v-6.45h8.095V16.68h-8.095zM266.403 38.201c11.313 0 20.864-5.033 20.864-13.425 0-7.666-9.55-13.443-20.864-13.443-11.326 0-20.864 5.777-20.864 13.443 0 8.392 9.538 13.425 20.864 13.425m0-21.463c5.082 0 9.201 3.595 9.201 8.038 0 4.43-4.12 8.038-9.2 8.038-5.087 0-9.202-3.608-9.202-8.038 0-4.443 4.115-8.038 9.201-8.038M211.26 24.775c0-7.666-9.546-13.439-20.864-13.439-11.31 0-20.86 5.773-20.86 13.439 0 8.392 9.55 13.426 20.86 13.426 11.318 0 20.864-5.034 20.864-13.426m-30.06 0c0-4.443 4.114-8.038 9.196-8.038 5.09 0 9.214 3.595 9.214 8.038 0 4.434-4.124 8.038-9.214 8.038-5.082 0-9.197-3.604-9.197-8.038M158.09 41.046h-52.377v5.602h40.99v2.68h-40.99v9.49s-.368 4.264 4.39 4.264h47.987v-5.72h-40.924v-2.445h29.537v.07h11.444V41.103h-.057zM146.703 38.913h11.44V11.99h-11.44zM301.388 11.989h-11.444v26.92h11.444v-4.57h8.1v-5.605h-8.1v-6.45h8.1V16.68h-8.1zM301.333 41.046h-53.348v5.602h41.96v16.618h11.445V41.103h-.057zM375.502 25.082h-8.515l.875-7.67h7.64v-5.603h-53.34v5.602h7.522l.857 7.67h-8.379v5.603h53.34zm-34.373-7.67h15.28l-.866 7.67h-13.548zM378.3 39.696v-5.602h-59.192v5.602h24.429v3.656H322.16v14.13c0 6.394 6.813 5.729 6.813 5.729H375.5V43.352h-20.514v-3.656zM364.05 57.61h-30.45v-8.655h30.45zM142.088 24.775c0-7.666-9.551-13.439-20.864-13.439-11.327 0-20.874 5.773-20.874 13.439 0 8.392 9.547 13.426 20.874 13.426 11.313 0 20.864-5.034 20.864-13.426m-30.079 0c0-4.443 4.129-8.038 9.215-8.038 5.081 0 9.196 3.595 9.196 8.038 0 4.434-4.115 8.038-9.196 8.038-5.086 0-9.215-3.604-9.215-8.038M200.387 40.469v-.01c-.04 0-.088.01-.118.01-.048 0-.088-.01-.131-.01v.01c-14.248.057-25.763 5.274-25.763 11.711 0 6.429 11.515 11.642 25.763 11.707h.249c14.248-.065 25.767-5.278 25.767-11.707 0-6.437-11.52-11.654-25.767-11.711m-.118 17.742c-7.846-.026-14.296-2.725-14.296-6.03 0-3.32 6.45-5.996 14.296-6.027 7.837.03 14.291 2.707 14.291 6.026 0 3.306-6.454 6.005-14.291 6.03" style="stroke-width:4.37318"/><path fill="#2c292a" d="M396.691 75H83.961V.017h312.73ZM85.863 73.093h308.921V1.924H85.863Z" style="stroke-width:4.37318"/><path fill="#ed272d" d="M74.983 0H0v74.978h74.983z" style="stroke-width:4.37318"/><path fill="#fff" d="M46.37 36.259s-14.266-3.81-24.727-.236v5.943s8.782-3.289 22.942-.118c0 0 9.035 2.97 22.701-.477v-5.83s-9.035 3.206-20.917.718" style="stroke-width:4.37318"/><path fill="#fff" d="M46.37 45.407s-14.266-3.81-24.727-.236v5.943s8.782-3.289 22.942-.118c0 0 3.341 1.093 9.035 1.185-4.071 5.143-10.369 8.44-17.445 8.44-12.297 0-22.255-9.962-22.255-22.25 0-12.298 9.958-22.26 22.255-22.26 8.484 0 15.862 4.753 19.61 11.742a45.562 45.562 0 0 1-9.534-.984s-14.26-3.8-24.73-.236v5.934s8.781-3.284 22.95-.118c0 0 9.03 2.978 22.697-.468v-5.82s-1.714.642-4.692 1.132c-4.33-10.146-14.397-17.27-26.13-17.27-15.67 0-28.378 12.7-28.378 28.378 0 15.673 12.709 28.382 28.378 28.382 10.89 0 20.335-6.123 25.098-15.114a54.24 54.24 0 0 0 5.842-1.15v-5.82s-9.035 3.205-20.917.708" style="stroke-width:4.37318"/></svg>