<svg xmlns="http://www.w3.org/2000/svg" xmlns:xlink="http://www.w3.org/1999/xlink" width="571.97229" height="102.268" viewBox="0 0 571.97227 102.268"><defs><radialGradient id="a" cx="0" cy="0" r="1" fx="0" fy="0" gradientTransform="matrix(0 56.20261 61.99809 0 171.534 260.364)" gradientUnits="userSpaceOnUse" spreadMethod="pad"><stop offset="0" style="stop-opacity:1;stop-color:#cce3f6"/><stop offset="0.07311279" style="stop-opacity:1;stop-color:#cce3f6"/><stop offset="0.25" style="stop-opacity:1;stop-color:#9acaee"/><stop offset="0.31187825" style="stop-opacity:1;stop-color:#9acaee"/><stop offset="0.7" style="stop-opacity:1;stop-color:#406db9"/><stop offset="0.74125217" style="stop-opacity:1;stop-color:#406db9"/><stop offset="1" style="stop-opacity:1;stop-color:#18397a"/></radialGradient><radialGradient id="b" cx="0" cy="0" r="1" fx="0" fy="0" gradientTransform="matrix(39.73459 0 0 39.73459 217.08 286.579)" gradientUnits="userSpaceOnUse" spreadMethod="pad"><stop offset="0" style="stop-opacity:1;stop-color:#cce3f6"/><stop offset="0.07311279" style="stop-opacity:1;stop-color:#cce3f6"/><stop offset="0.25" style="stop-opacity:1;stop-color:#9acaee"/><stop offset="0.31187825" style="stop-opacity:1;stop-color:#9acaee"/><stop offset="0.7" style="stop-opacity:1;stop-color:#406db9"/><stop offset="0.74125217" style="stop-opacity:1;stop-color:#406db9"/><stop offset="1" style="stop-opacity:1;stop-color:#18397a"/></radialGradient><radialGradient id="c" cx="0" cy="0" r="1" fx="0" fy="0" gradientTransform="scale(61.99526 -56.20005)rotate(90 4.338 -.209)" gradientUnits="userSpaceOnUse" spreadMethod="pad"><stop offset="0" style="stop-opacity:1;stop-color:#cce3f6"/><stop offset="0.07311279" style="stop-opacity:1;stop-color:#cce3f6"/><stop offset="0.25" style="stop-opacity:1;stop-color:#9acaee"/><stop offset="0.31187825" style="stop-opacity:1;stop-color:#9acaee"/><stop offset="0.7" style="stop-opacity:1;stop-color:#406db9"/><stop offset="0.74125217" style="stop-opacity:1;stop-color:#406db9"/><stop offset="1" style="stop-opacity:1;stop-color:#18397a"/></radialGradient><radialGradient id="h" cx="0" cy="0" r="1" fx="0" fy="0" gradientTransform="matrix(-39.742 0 0 -39.742 210.448 229.305)" gradientUnits="userSpaceOnUse" spreadMethod="pad"><stop offset="0" style="stop-opacity:1;stop-color:#cce3f6"/><stop offset="0.07311279" style="stop-opacity:1;stop-color:#cce3f6"/><stop offset="0.25" style="stop-opacity:1;stop-color:#9acaee"/><stop offset="0.31187825" style="stop-opacity:1;stop-color:#9acaee"/><stop offset="0.7" style="stop-opacity:1;stop-color:#406db9"/><stop offset="0.74125217" style="stop-opacity:1;stop-color:#406db9"/><stop offset="1" style="stop-opacity:1;stop-color:#18397a"/></radialGradient><radialGradient xlink:href="#a" id="e" cx="0" cy="0" r="1" fx="0" fy="0" gradientTransform="matrix(0 56.20261 61.99809 0 171.534 260.364)" gradientUnits="userSpaceOnUse" spreadMethod="pad"/><radialGradient xlink:href="#b" id="f" cx="0" cy="0" r="1" fx="0" fy="0" gradientTransform="matrix(39.73459 0 0 39.73459 217.08 286.579)" gradientUnits="userSpaceOnUse" spreadMethod="pad"/><radialGradient xlink:href="#c" id="g" cx="0" cy="0" r="1" fx="0" fy="0" gradientTransform="scale(61.99526 -56.20005)rotate(90 4.338 -.209)" gradientUnits="userSpaceOnUse" spreadMethod="pad"/><clipPath id="d" clipPathUnits="userSpaceOnUse"><path d="M0 540h780.094V0H0Z"/></clipPath></defs><path d="M0 0h-6.926v-39.521H0v18.379h9.014v5.888H0Z" style="fill:#18397a;fill-opacity:1;fill-rule:nonzero;stroke:none" transform="matrix(1.33333 0 0 -1.33333 193.485 14.003)"/><g clip-path="url(#d)" transform="matrix(1.33333 0 0 -1.33333 -227.808 395.057)"><path d="M0 0h-7.041v-13.467a3.81 3.81 0 0 1 3.804-3.803h31.671v5.829H0Z" style="fill:#18397a;fill-opacity:1;fill-rule:nonzero;stroke:none" transform="translate(288.402 248.69)"/><path d="M0 0c0-4.335-3.021-7.604-7.026-7.604-4.006 0-7.027 3.269-7.027 7.604 0 4.459 3.086 7.952 7.027 7.952C-3.087 7.952 0 4.459 0 0m6.811-.345c0 3.123-1.161 6.104-3.286 8.47h5.54v5.887H-3.65v6.704h-6.983v-6.704h-12.541V8.125h5.551a12.82 12.82 0 0 1-3.182-8.47c0-7.401 6.053-13.199 13.779-13.199 7.759 0 13.837 5.798 13.837 13.199" style="fill:#18397a;fill-opacity:1;fill-rule:nonzero;stroke:none" transform="translate(295.635 266.406)"/><path d="M0 0h22.076v-7.578H7.801v-5.829h29.648v-13.755h6.925v15.779a3.81 3.81 0 0 1-3.803 3.805H29.002V0h21.961v5.77H0Z" style="fill:#18397a;fill-opacity:1;fill-rule:nonzero;stroke:none" transform="translate(329.167 258.523)"/><path d="M0 0h6.982v14.218a3.807 3.807 0 0 1-3.803 3.803h-32.885v-5.884H0Z" style="fill:#18397a;fill-opacity:1;fill-rule:nonzero;stroke:none" transform="translate(366.56 266.962)"/><path d="M0 0c2.398-3.516 6.453-7.284 12.378-11.503l.447-.316 4.039 4.875-.507.368C5.415 1.394 3.489 5.208 3.489 10.279v8.98h-6.926v-9.038c0-5.44-3.388-10.018-12.946-17.494l-.48-.374 4.217-5.046.451.357C-6.453-7.762-2.458-3.721 0 0" style="fill:#18397a;fill-opacity:1;fill-rule:nonzero;stroke:none" transform="translate(400.264 265.318)"/><path d="M0 0h-7.04v-13.524a3.807 3.807 0 0 1 3.803-3.804h31.671v5.944H0Z" style="fill:#18397a;fill-opacity:1;fill-rule:nonzero;stroke:none" transform="translate(400.4 248.69)"/><path d="M0 0h-6.924v-39.521H0v20.866h9.015v5.885H0Z" style="fill:#18397a;fill-opacity:1;fill-rule:nonzero;stroke:none" transform="translate(427.967 285.791)"/><path d="M458.807 242.862h20.815v-5.615h-20.815zm20.815 5.828h-20.815v6.125h-6.926v-19.709a3.807 3.807 0 0 1 3.803-3.802h30.92v23.511h-6.982z" style="fill:#18397a;fill-opacity:1;fill-rule:nonzero;stroke:none"/><path d="M0 0c0-3.74-2.996-7.779-7.836-7.779-4.941 0-7.893 3.956-7.893 7.779 0 3.794 2.952 7.719 7.893 7.719C-2.932 7.719 0 3.794 0 0m15.257 2.856H6.632C5.181 9.034-.99 13.662-7.836 13.662c-8.173 0-14.819-6.129-14.819-13.662 0-7.661 6.509-13.663 14.819-13.663 6.93 0 12.968 4.432 14.466 10.574h8.627v-11.902h6.982v29.114h-6.982z" style="fill:#18397a;fill-opacity:1;fill-rule:nonzero;stroke:none" transform="translate(464.364 271.668)"/><path d="M0 0h-7.098v-13.467a3.81 3.81 0 0 1 3.802-3.803h33.753v5.886H0Z" style="fill:#18397a;fill-opacity:1;fill-rule:nonzero;stroke:none" transform="translate(511.241 248.69)"/><path d="M0 0c0 3.736 3.256 7.603 8.703 7.603 4.799 0 8.703-3.412 8.703-7.603 0-4.266-3.823-7.606-8.703-7.606C3.256-7.606 0-3.738 0 0m8.703-13.433c8.943 0 15.686 5.776 15.686 13.433 0 7.655-6.743 13.43-15.686 13.43C-.271 13.43-7.04 7.655-7.04 0c0-7.784 6.621-13.433 15.743-13.433" style="fill:#18397a;fill-opacity:1;fill-rule:nonzero;stroke:none" transform="translate(513.669 274.326)"/><path d="M497.073 252.225h51.038v5.885h-51.038z" style="fill:#18397a;fill-opacity:1;fill-rule:nonzero;stroke:none"/><path d="M0 0v-11.846h-4.517v11.21h-6.522v-29.518h6.522v12.365H0v-14.218h6.752V0Z" style="fill:#18397a;fill-opacity:1;fill-rule:nonzero;stroke:none" transform="translate(593.083 285.791)"/><path d="M0 0c0-3.729-2.201-6.332-5.351-6.332-3.185 0-5.409 2.603-5.409 6.332 0 3.256 2.024 6.623 5.409 6.623C-2.002 6.623 0 3.256 0 0m6.637-.404a11.93 11.93 0 0 1-2.387 7.2h4.179v5.885H-1.975v5.837h-6.983v-5.837h-10.518V6.796h4.466c-1.525-2.06-2.328-4.535-2.328-7.2 0-6.879 5.041-11.87 11.987-11.87 6.834 0 11.988 5.102 11.988 11.87" style="fill:#18397a;fill-opacity:1;fill-rule:nonzero;stroke:none" transform="translate(571.932 268.603)"/><path d="M0 0c0-3.284-3.018-6.679-8.066-6.679-5.203 0-8.009 3.442-8.009 6.679 0 3.255 2.996 6.622 8.009 6.622C-3.085 6.622 0 3.184 0 0m-8.066 12.623c-8.408 0-14.992-5.545-14.992-12.623 0-7.314 6.304-12.622 14.992-12.622C.514-12.622 6.983-7.195 6.983 0c0 7.078-6.61 12.623-15.049 12.623" style="fill:#18397a;fill-opacity:1;fill-rule:nonzero;stroke:none" transform="translate(591.118 241.905)"/></g><path d="M171.956 257.019c-1.428-2.25-1.503-5.949-.007-8.281l15.912-25.004c1.441-2.221 4.735-4.142 8.101-4.142h21.32l-29.185 45.809c-2.119 3.314-3.836 10.203-2.152 13.54z" style="fill:url(#e);stroke:none" transform="matrix(1.33333 0 0 -1.33333 -227.808 395.057)"/><path d="M195.94 285.831c-3.713 0-6.658-1.635-8.241-4.143l-1.754-2.747c-1.684-3.337.033-10.226 2.152-13.54l9.86-15.471c-1.18 2.341-.469 5.23.304 6.443l18.652 29.458z" style="fill:url(#f);stroke:none" transform="matrix(1.33333 0 0 -1.33333 -227.808 395.057)"/><path d="m210.245 296.293 29.185-45.808c2.12-3.311 3.831-10.199 2.153-13.539l13.985 21.921c1.431 2.253 1.507 5.952.012 8.284l-15.915 25.004c-1.439 2.218-4.734 4.138-8.098 4.138z" style="fill:url(#g);stroke:none" transform="matrix(1.33333 0 0 -1.33333 -227.808 395.057)"/><path d="m229.264 259.515-18.649-29.462h20.972c3.713 0 6.663 1.637 8.242 4.149l1.754 2.744c1.678 3.34-.033 10.228-2.153 13.539l-9.859 15.475c1.176-2.346.473-5.232-.307-6.445" style="fill:url(#h);stroke:none" transform="matrix(1.33333 0 0 -1.33333 -227.808 395.057)"/></svg>