<svg xmlns="http://www.w3.org/2000/svg" xmlns:xlink="http://www.w3.org/1999/xlink" width="690.01166pt" height="150pt" viewBox="0 0 690.01166 150"><defs><linearGradient id="a"><stop offset="0" style="stop-color:#32abe3;stop-opacity:1"/><stop offset="0.28465846" style="stop-color:#1099d7;stop-opacity:1"/><stop offset="0.53691584" style="stop-color:#0390d1;stop-opacity:1"/><stop offset="0.74167413" style="stop-color:#007dc1;stop-opacity:1"/><stop offset="1" style="stop-color:#006eb3;stop-opacity:1"/></linearGradient><linearGradient xlink:href="#a" id="c" x1="280.12988" x2="442.60516" y1="731.13898" y2="711.52985" gradientUnits="userSpaceOnUse"/><clipPath id="b"><path d="M176.854 545.009c-.486 0-1.502.179-1.737 1.537l-2.041 15.7c-.135.998.249 1.792 1.556 1.792h2.089c.501 0 .594-.301.62-.528l.547-8.661c.055-.81.463-.984.749-1.143l8.782-4.872c.399-.201.687.262.38.514l-6.779 5.604c-.917.714-.205 1.598-.205 1.598l5.893 7.033c.179.239.46.441.965.441h3.328c.85 0 1.209-1.058.543-1.621l-5.79-5.323c-.06-.064-.008-.163.064-.15l5.845 1.167c.239.045.45-.087.45-.311v-4.266c0-.252-.229-.355-.463-.303l-5.792 1.239c-.14.03-.16-.091-.09-.152l3.812-4.246c1.278-1.439 1.068-2.19.656-2.809-.372-.559-1.037-.852-2.6-.373l-9.031 2.755c-.284.071-.372-.07-.361-.26.07-1.07.259-4.051.259-4.051.013-.224-.152-.311-.324-.311z"/></clipPath></defs><path d="M304.418 539.826v1.199h2.951v8.297h1.37v-8.297h2.946v-1.199zM319.923 539.826v3.972h-4.542v-3.972h-1.37v9.496h1.37v-4.33h4.542v4.33h1.36v-9.496zM324.737 539.826v9.496h5.314v-1.2h-3.95v-3.13h3.602v-1.194h-3.601v-2.773h3.95v-1.199zM337.878 539.826v9.496h5.32v-1.2h-3.964v-3.13h3.615v-1.194h-3.615v-2.773h3.963v-1.199zM352.168 539.826l-2.524 3.658-2.529-3.658h-1.635l3.187 4.56-3.496 4.936h1.63l2.704-4.033 2.807 4.033h1.727l-3.514-4.966 3.191-4.53zM357.521 541.019h1.155c.846 0 2.102.44 2.102 1.634 0 1.247-1.064 1.675-1.905 1.675h-1.352zm-1.36 8.305h1.36v-3.802h1.343c1.705 0 3.353-.759 3.353-2.851 0-2.167-1.622-2.851-3.567-2.851h-2.49zM365.66 544.573c0-1.93 1.034-3.732 3.131-3.705 2.097-.027 3.126 1.774 3.126 3.705 0 1.888-.937 3.706-3.126 3.706-2.193 0-3.13-1.818-3.13-3.706m-1.443 0c0 2.882 1.678 4.91 4.573 4.91 2.89 0 4.569-2.028 4.569-4.91 0-2.825-1.692-4.909-4.569-4.909-2.886 0-4.573 2.084-4.573 4.91M377.47 541.019h1.304c1.26 0 1.897.544 1.897 1.403 0 .916-.754 1.478-2.04 1.478h-1.16zm-1.364 8.305h1.365v-4.216h.82c.714 0 1.168 0 1.586.915l1.46 3.3h1.544l-1.787-3.783c-.301-.585-.506-.79-.929-.95v-.031c1.099-.184 1.966-1.007 1.966-2.167 0-2.272-1.809-2.572-3.692-2.572h-2.333zM384.102 539.826v1.199h2.947v8.297h1.36v-8.297h2.947v-1.199zM391.924 546.182h3.5v-1.033h-3.5zM398.05 549.321h1.355v-9.491h-1.356zM410.89 539.826l-2.926 7.882-2.982-7.882h-2.25v9.496h1.37v-8.223h.021l3.16 8.223h1.317l3.152-8.223h.022v8.223h1.36v-9.496zM417.75 541.019h1.152c.837 0 2.097.44 2.097 1.634 0 1.247-1.06 1.675-1.897 1.675h-1.351zm-1.36 8.305h1.36v-3.802h1.326c1.718 0 3.366-.759 3.366-2.851 0-2.167-1.627-2.851-3.562-2.851h-2.49zM425.881 544.573c0-1.93 1.038-3.732 3.126-3.705 2.102-.027 3.13 1.774 3.13 3.705 0 1.888-.937 3.706-3.13 3.706-2.184 0-3.126-1.818-3.126-3.706m-1.438 0c0 2.882 1.67 4.91 4.564 4.91 2.908 0 4.574-2.028 4.574-4.91 0-2.825-1.683-4.909-4.574-4.909-2.89 0-4.564 2.084-4.564 4.91M437.685 541.019H439c1.247 0 1.897.544 1.897 1.403 0 .916-.763 1.478-2.05 1.478h-1.163zm-1.348 8.305h1.348v-4.216h.828c.715 0 1.16 0 1.582.915l1.457 3.3h1.56l-1.8-3.783c-.292-.585-.506-.79-.92-.95v-.031c1.103-.184 1.957-1.007 1.957-2.167 0-2.272-1.818-2.572-3.688-2.572h-2.324zM444.319 539.826v1.199h2.956v8.297h1.356v-8.297h2.947v-1.199zM459.812 544.99h.868c1.181 0 2.467.206 2.467 1.675 0 1.282-1.09 1.534-2.319 1.534h-1.016zm-1.373 4.33h2.542c1.927 0 3.61-.488 3.61-2.533 0-1.33-.912-2.18-2.207-2.28v-.035c1.204-.292 1.971-.946 1.971-2.254 0-1.757-1.369-2.394-3.335-2.394h-2.581zm1.373-8.38h1.421c.79 0 1.753.284 1.753 1.417 0 1.4-1.112 1.522-2.433 1.522h-.74zM470.741 539.826l-4.054 9.496h1.43l.963-2.398h4.656l.972 2.398h1.474l-4.015-9.496zm.671 1.282 1.893 4.713h-3.789zM484.508 539.826v7.638h-.03l-4.182-7.638h-1.848v9.496h1.356v-7.809h.03l4.299 7.809h1.744v-9.496zM494.661 539.826l-4.059 4.168v-4.168h-1.351v9.496h1.351v-4.652l4.234 4.652h1.983l-4.804-5.014 4.46-4.482zM504.778 544.573c0-1.93 1.046-3.732 3.134-3.705 2.102-.027 3.14 1.774 3.14 3.705 0 1.888-.942 3.706-3.14 3.706-2.192 0-3.134-1.818-3.134-3.706m-1.435 0c0 2.882 1.67 4.91 4.57 4.91 2.899 0 4.573-2.028 4.573-4.91 0-2.825-1.687-4.909-4.574-4.909-2.881 0-4.569 2.084-4.569 4.91M515.235 539.826v9.496h1.364v-4.33h3.527v-1.199H516.6v-2.768h3.68v-1.199zM533.182 539.826l-4.054 4.168v-4.168h-1.356v9.496h1.356v-4.652l4.229 4.652h1.983l-4.813-5.014 4.469-4.482zM538.625 544.573c0-1.93 1.028-3.732 3.125-3.705 2.097-.027 3.13 1.774 3.13 3.705 0 1.888-.941 3.706-3.13 3.706-2.193 0-3.126-1.818-3.126-3.706m-1.443 0c0 2.882 1.67 4.91 4.57 4.91 2.899 0 4.577-2.028 4.577-4.91 0-2.825-1.691-4.909-4.578-4.909-2.886 0-4.569 2.084-4.569 4.91M550.43 541.019h1.313c1.251 0 1.892.544 1.892 1.403 0 .916-.759 1.478-2.05 1.478h-1.154zm-1.35 8.305h1.35v-4.216h.82c.715 0 1.164 0 1.587.915l1.46 3.3h1.553l-1.797-3.783c-.3-.585-.505-.79-.928-.95v-.031c1.099-.184 1.949-1.007 1.949-2.167 0-2.272-1.797-2.572-3.676-2.572h-2.319zM558.433 539.826v9.496h5.328v-1.2h-3.972v-3.13h3.614v-1.199h-3.614v-2.768h3.972v-1.199zM569.838 539.826l-4.06 9.496h1.427l.967-2.398h4.657l.967 2.398h1.483l-4.007-9.496zm.667 1.282 1.896 4.713h-3.793zM312.764 512.146c1.356-.492 2.533-1.181 3.518-2.075a9.65 9.65 0 0 0 2.415-3.039 8.269 8.269 0 0 0 .881-3.723 8.08 8.08 0 0 0-.88-3.645 9.7 9.7 0 0 0-2.416-3.051c-.157-.131-.327-.266-.497-.401h4.438v-3.353h-8.89v-2.546c0-.95-.514-1.421-1.538-1.421h-4.247v3.967h-8.902v3.353h4.416c-.174.135-.348.27-.51.4a9.931 9.931 0 0 0-2.367 3.052 7.909 7.909 0 0 0-.876 3.645c0 1.321.287 2.568.876 3.723a9.88 9.88 0 0 0 2.367 3.04 11.234 11.234 0 0 0 3.545 2.074c1.342.493 2.794.737 4.346.737 1.513 0 2.952-.244 4.32-.737m-8.09-4.451c-.502-.532-.886-1.173-1.165-1.94a7.238 7.238 0 0 1-.418-2.446c0-.824.148-1.622.418-2.385a6.09 6.09 0 0 1 1.164-1.979 5.597 5.597 0 0 1 1.692-1.32 4.39 4.39 0 0 1 2.08-.52c.697 0 1.377.175 2.03.52.655.335 1.217.78 1.688 1.32a6.39 6.39 0 0 1 1.19 1.98c.288.762.432 1.56.432 2.384 0 .876-.144 1.683-.432 2.446a5.78 5.78 0 0 1-1.19 1.94 5.125 5.125 0 0 1-1.687 1.338 4.402 4.402 0 0 1-2.032.502 4.476 4.476 0 0 1-2.08-.502 5.097 5.097 0 0 1-1.69-1.338M312.25 526.469c-.588 0-.972-.118-1.16-.332-.191-.222-.278-.558-.278-1.007v-8.178c0-.415-.083-.724-.223-.938-.157-.218-.449-.322-.876-.322h-4.696v11.583c0 .62.21 1.143.62 1.566.61.658 1.613.98 3.02.98h21.874v-3.352zM330.307 501.267V491.17c0-.933-.628-1.387-1.887-1.387h-3.898v28.238h5.785v-13.402h5.873v-3.352zM366.5 529.805V518.73h-22.919v-3.361h26.651c.641 0 1.142.192 1.504.558.37.38.558.815.558 1.33v12.547zm10.477-21.851h-15.952v9.386h-5.79v-9.386h-15.948v-3.357h24.846c.785 0 1.317-.327 1.583-1.016.14-.392.218-.815.218-1.247v-8.763H343.58v-3.348h26.076c.636 0 1.138.183 1.508.545.358.384.55.807.55 1.282v9.382l-.044 1.12c-.118.798-.327 1.487-.667 2.045h5.973zM381.194 504.555l1.652 3.143c5.75-1.225 9.674-3.448 13.302-6.3 1.172-.92 1.395-1.12 2.254-2.175 2.576 3.03 10.07 6.535 15.093 7.412l2.35-3.776c-5.14-1.146-11.462-3.945-15.015-6.884a15.426 15.426 0 0 0 1.713-5.057c.088-.445.048-.754-.13-.937a.863.863 0 0 0-.615-.262h-5.406c-.161 5.035-3.998 11.388-15.198 14.836M380.148 512.731v3.357H396.1v14.113h5.785v-14.113h15.953v-3.357zM459.194 510.963v-3.357h-37.306v3.357h15.76v3.034H426.27v3.353h22.461v2.864h-22.152v7.059c0 .623.214 1.16.659 1.613.61.628 1.595.942 2.977.942h24.506v-3.366h-20.905c-.623 0-1.02-.1-1.203-.31-.166-.209-.257-.545-.257-1.02v-1.565h22.152v-9.57h-11.074v-3.034zM423.822 502.313l1.644 3.205c6.526-.69 11.392-2.42 15.603-5.463 3.968 2.66 8.388 4.639 13.236 5.942l1.766-3.902c-3.771-.937-8.929-3.117-12.085-4.974.331-.48.588-1.243.663-2.027h10.48v-3.357H444.23v-2.002c0-.954-.497-1.42-1.478-1.42h-4.673v3.422h-12.125v3.357h11.48c.43 0 .592.274.474.806-1.22 2.917-6.705 5.049-14.086 6.413M478.378 509.463a12.184 12.184 0 0 0 3.636-2.175c1.015-.968 1.844-2.058 2.437-3.287.597-1.243.889-2.577.889-4.011a8.97 8.97 0 0 0-.89-3.95 10.926 10.926 0 0 0-2.436-3.279 12.762 12.762 0 0 0-3.636-2.214 11.657 11.657 0 0 0-4.382-.833c-1.587 0-3.052.279-4.434.833a12.585 12.585 0 0 0-3.636 2.214 10.572 10.572 0 0 0-2.415 3.279 9.262 9.262 0 0 0-.868 3.95 9.42 9.42 0 0 0 .868 4.01c.584 1.23 1.39 2.32 2.415 3.288a12.023 12.023 0 0 0 3.636 2.175c1.382.545 2.847.807 4.434.807 1.543 0 3-.262 4.382-.807m-8.332-4.556c-.497-.623-.894-1.355-1.194-2.206a8.514 8.514 0 0 1-.428-2.711c0-.916.144-1.8.428-2.655.3-.85.697-1.583 1.194-2.206a5.667 5.667 0 0 1 1.77-1.505 4.644 4.644 0 0 1 2.18-.558c.724 0 1.434.197 2.119.558.689.371 1.277.872 1.779 1.505.497.623.893 1.355 1.199 2.206.3.854.462 1.74.462 2.655 0 .959-.162 1.861-.462 2.711-.306.85-.702 1.583-1.2 2.206a5.57 5.57 0 0 1-1.778 1.483 4.637 4.637 0 0 1-2.119.532 4.775 4.775 0 0 1-2.18-.532 5.54 5.54 0 0 1-1.77-1.483M495.1 489.713h-3.906v21.768h5.785v-20.382c0-.92-.619-1.386-1.879-1.386M496.673 514.29c-.214-.27-.52-.402-.929-.402h-4.552v4.521h-14.46v-3.043c0-.985-.428-1.478-1.274-1.478h-4.52v13.32c0 .623.226 1.163.662 1.617.61.615 1.604.928 2.982.928h22.396v-14.387c0-.44-.1-.806-.305-1.076m-5.48 12.12h-13.058c-.732 0-1.15-.14-1.255-.41-.1-.27-.149-.567-.149-.89v-3.352h14.461zM523.665 492.939c.824.362 1.552.82 2.189 1.395a6.8 6.8 0 0 1 1.49 2.075 5.83 5.83 0 0 1 .559 2.472 5.95 5.95 0 0 1-.558 2.529 6.869 6.869 0 0 1-1.491 2.066 7.509 7.509 0 0 1-2.19 1.378 7.042 7.042 0 0 1-2.663.497 7.096 7.096 0 0 1-2.668-.497 7.233 7.233 0 0 1-2.21-1.378 6.556 6.556 0 0 1-1.483-2.066 6.127 6.127 0 0 1-.527-2.529 6 6 0 0 1 .527-2.472 6.496 6.496 0 0 1 1.483-2.075c.627-.575 1.364-1.033 2.21-1.395a6.728 6.728 0 0 1 2.668-.545c.95 0 1.827.187 2.664.545m16.196 19.178h-37.698v3.336h37.698zm-31.346 2.804v12.338c.06.688.279 1.225.667 1.608.61.624 1.591.938 2.969.938h22.575v-3.349H515.7c-.584 0-.96-.122-1.138-.34-.166-.218-.257-.558-.257-1.002V514.92zm7.525-25.086c-1.54.527-2.886 1.23-4.046 2.119-1.151.893-2.067 1.935-2.734 3.126a7.7 7.7 0 0 0-.994 3.801c0 1.352.332 2.607.994 3.806.667 1.19 1.583 2.228 2.734 3.122 1.16.902 2.507 1.604 4.046 2.119 1.552.527 3.2.789 4.961.789 1.744 0 3.379-.262 4.931-.79 1.539-.514 2.89-1.216 4.05-2.118 1.142-.894 2.067-1.932 2.742-3.122.676-1.199 1.02-2.454 1.02-3.806 0-1.347-.344-2.607-1.02-3.801-.675-1.19-1.6-2.233-2.742-3.126-1.16-.89-2.511-1.592-4.05-2.12-1.552-.522-3.187-.78-4.93-.78-1.762 0-3.41.258-4.962.78M571.937 515.701c-1.15-.806-2.472-1.447-3.993-1.94a15.66 15.66 0 0 0-4.827-.737c-1.717 0-3.344.249-4.856.737-1.518.493-2.847 1.134-3.985 1.94-1.142.837-2.04 1.805-2.681 2.912a6.749 6.749 0 0 0-.964 3.48c0 1.25.318 2.428.964 3.535.64 1.103 1.539 2.071 2.68 2.895 1.139.807 2.468 1.443 3.986 1.931 1.512.467 3.139.711 4.856.711 1.705 0 3.305-.244 4.827-.71 1.521-.489 2.842-1.125 3.993-1.932 1.13-.824 2.032-1.792 2.694-2.895a6.791 6.791 0 0 0 .977-3.535 6.64 6.64 0 0 0-.977-3.48c-.662-1.107-1.565-2.075-2.694-2.912m-2.66 8.624a6.147 6.147 0 0 1-1.469 1.83 7.214 7.214 0 0 1-2.127 1.213 7.383 7.383 0 0 1-2.564.444c-.933 0-1.8-.152-2.594-.444a7.206 7.206 0 0 1-2.136-1.212 6.21 6.21 0 0 1-1.447-1.831 4.901 4.901 0 0 1-.52-2.232c0-.772.175-1.505.52-2.185.353-.689.845-1.295 1.447-1.835a7.65 7.65 0 0 1 2.136-1.23 7.18 7.18 0 0 1 2.594-.466c.912 0 1.77.161 2.564.466.81.314 1.513.724 2.127 1.23a6.333 6.333 0 0 1 1.47 1.835c.37.68.553 1.413.553 2.185 0 .806-.183 1.543-.553 2.232M575.313 490.1c-.21-.208-.624-.317-1.238-.317h-3.506v7.956h-2.397v-6.614c0-.48-.114-.82-.314-1.024-.205-.21-.633-.318-1.269-.318h-3.466v21.763h5.049V501.31h2.397v10.236h5.045v-20.42c0-.48-.1-.82-.301-1.025M554.68 511.415a9.953 9.953 0 0 0 3.183-1.97 8.699 8.699 0 0 0 2.145-2.87 8.392 8.392 0 0 0 .798-3.57 8.124 8.124 0 0 0-.798-3.522 9.211 9.211 0 0 0-2.145-2.904 7.144 7.144 0 0 0-.44-.358h3.906v-3.352h-7.577v-2.633c0-.955-.519-1.44-1.548-1.44h-4.237v4.073h-7.586v3.352h3.858a7.241 7.241 0 0 0-.444.358 9.225 9.225 0 0 0-2.128 2.904 8.289 8.289 0 0 0-.767 3.522c0 1.26.257 2.437.767 3.57a8.71 8.71 0 0 0 2.128 2.87c.902.84 1.97 1.5 3.173 1.97 1.226.484 2.512.706 3.89.706 1.338 0 2.615-.222 3.823-.706m-7.002-4.29c-.907-1.138-1.338-2.485-1.338-4.067 0-1.548.431-2.891 1.338-4.046.876-1.147 1.944-1.722 3.178-1.722 1.225 0 2.285.575 3.179 1.722.876 1.155 1.325 2.498 1.325 4.046 0 1.582-.45 2.93-1.325 4.067-.894 1.134-1.954 1.696-3.179 1.696-1.234 0-2.302-.562-3.178-1.696" style="stroke-width:4.35971" transform="matrix(1.80808 0 0 1.80808 -350.743 -843.862)"/><g clip-path="url(#b)" transform="matrix(7.8827 0 0 7.8827 -1364.106 -4296.145)"><path d="M208.41 608.189v10.543c-.162.148-.33.295-.484.447-2.223 1.23-4.064 2.568-5.521 4.025-19.338 19.338-34.795 170.129-15.884 191.608 1.824 2.072 4.43 3.907 7.883 5.526v10.195h47.297v.02l160.934 1.857 65.69-.01V622.195H378.985z" style="fill:url(#c);fill-opacity:1;stroke-width:10.5103" transform="matrix(.09514 0 0 .09514 148.441 485.801)"/></g></svg>