<svg xmlns="http://www.w3.org/2000/svg" xml:space="preserve" width="829.68628" height="200" viewBox="0 0 829.68628 200"><defs><clipPath id="a" clipPathUnits="userSpaceOnUse"><path d="M0 595.28h419.53V0H0Z"/></clipPath><clipPath id="b" clipPathUnits="userSpaceOnUse"><path d="M111.614 319.554c0-11.714 9.495-21.206 21.21-21.206 11.711 0 21.203 9.496 21.203 21.205 0 11.714-9.492 21.207-21.207 21.207-11.711 0-21.206-9.493-21.206-21.206"/></clipPath><clipPath id="c" clipPathUnits="userSpaceOnUse"><path d="M190.723 98.877c0-10.056 8.149-18.202 18.204-18.202 10.054 0 18.199 8.151 18.199 18.201 0 10.055-8.145 18.202-18.202 18.202-10.053 0-18.201-8.147-18.201-18.201"/></clipPath><clipPath id="d" clipPathUnits="userSpaceOnUse"><path d="M0 595.28h419.53V0H0Z"/></clipPath></defs><g clip-path="url(#a)" transform="matrix(4.49418 0 0 -4.49418 -496.937 1535.794)"><path d="M0 0c0-12.288-9.965-22.252-22.242-22.252-12.293 0-22.253 9.964-22.253 22.252 0 12.29 9.96 22.25 22.251 22.25C-9.965 22.25 0 12.29 0 0" style="fill:#fff;fill-opacity:1;fill-rule:nonzero;stroke:none" transform="translate(155.068 319.48)"/><path d="M0 0c11.711 0 21.203 9.496 21.203 21.205 0 11.714-9.492 21.207-21.206 21.207-11.712 0-21.206-9.493-21.206-21.206C-21.209 9.491-11.714 0 0 0" style="fill:#007bc7;fill-opacity:1;fill-rule:nonzero;stroke:none" transform="translate(132.824 298.348)"/></g><g clip-path="url(#b)" transform="matrix(4.49418 0 0 -4.49418 -496.937 1535.794)"><path d="M0 0c9.318 0 17.305-2.595 20.728-6.288a21.432 21.432 0 0 1 1.778 8.584C22.506 14.464 12.421 24.32 0 24.319c-12.419 0-22.505-9.858-22.505-22.028 0-3.046.634-5.945 1.78-8.579C-17.312-2.595-9.316 0 0 0" style="fill:#007bc7;fill-opacity:1;fill-rule:nonzero;stroke:none" transform="translate(132.907 309.321)"/><path d="M0 0c9.295 0 17.262-2.575 20.674-6.238a21.151 21.151 0 0 1 1.775 8.515c0 12.071-10.058 21.878-22.449 21.877-12.387 0-22.447-9.81-22.447-21.881 0-3.023.633-5.898 1.776-8.511C-17.267-2.575-9.292 0 0 0" style="fill:#007dc8;fill-opacity:1;fill-rule:nonzero;stroke:none" transform="translate(132.903 309.298)"/><path d="M0 0c9.271 0 17.218-2.552 20.622-6.186a20.894 20.894 0 0 1 1.769 8.447c0 11.971-10.032 21.73-22.391 21.73-12.355 0-22.389-9.761-22.389-21.735 0-2.997.63-5.851 1.77-8.442C-17.223-2.552-9.268 0 0 0" style="fill:#007fca;fill-opacity:1;fill-rule:nonzero;stroke:none" transform="translate(132.901 309.274)"/><path d="M0 0c9.247 0 17.174-2.532 20.568-6.136a20.614 20.614 0 0 1 1.766 8.377c0 11.874-10.006 21.585-22.334 21.584-12.323 0-22.331-9.712-22.331-21.588 0-2.973.628-5.802 1.766-8.373C-17.178-2.532-9.244 0 0 0" style="fill:#0080cb;fill-opacity:1;fill-rule:nonzero;stroke:none" transform="translate(132.898 309.251)"/><path d="M0 0c9.223 0 17.13-2.51 20.515-6.085a20.329 20.329 0 0 1 1.761 8.308c0 11.778-9.981 21.439-22.276 21.439-12.292 0-22.273-9.663-22.273-21.443 0-2.947.626-5.755 1.761-8.304C-17.134-2.51-9.219 0 0 0" style="fill:#0082cc;fill-opacity:1;fill-rule:nonzero;stroke:none" transform="translate(132.895 309.227)"/><path d="M0 0c9.199 0 17.085-2.489 20.461-6.034a20.055 20.055 0 0 1 1.756 8.239c0 11.68-9.952 21.292-22.217 21.291-12.26 0-22.216-9.614-22.216-21.295 0-2.924.625-5.708 1.758-8.235C-17.09-2.489-9.196 0 0 0" style="fill:#0084cd;fill-opacity:1;fill-rule:nonzero;stroke:none" transform="translate(132.893 309.204)"/><path d="M0 0c9.175 0 17.042-2.469 20.408-5.985a19.804 19.804 0 0 1 1.752 8.171c0 11.582-9.927 21.146-22.16 21.145-12.228 0-22.158-9.565-22.158-21.149 0-2.899.623-5.661 1.752-8.167C-17.045-2.469-9.172 0 0 0" style="fill:#0086cf;fill-opacity:1;fill-rule:nonzero;stroke:none" transform="translate(132.89 309.18)"/><path d="M0 0c9.151 0 16.998-2.448 20.354-5.934a19.54 19.54 0 0 1 1.748 8.102c0 11.484-9.901 20.999-22.102 20.999-12.196 0-22.101-9.517-22.101-21.002 0-2.876.622-5.613 1.748-8.099C-17.001-2.448-9.148 0 0 0" style="fill:#0088d0;fill-opacity:1;fill-rule:nonzero;stroke:none" transform="translate(132.887 309.157)"/><path d="M0 0c9.126 0 16.953-2.426 20.301-5.883a19.256 19.256 0 0 1 1.743 8.032c0 11.388-9.874 20.854-22.044 20.853-12.165 0-22.043-9.468-22.043-20.856 0-2.85.62-5.565 1.742-8.029C-16.958-2.426-9.125 0 0 0" style="fill:#008ad2;fill-opacity:1;fill-rule:nonzero;stroke:none" transform="translate(132.885 309.133)"/><path d="M0 0c9.103 0 16.909-2.405 20.249-5.832a19.005 19.005 0 0 1 1.737 7.963c0 11.289-9.848 20.707-21.986 20.707-12.133 0-21.985-9.42-21.985-20.71 0-2.825.618-5.518 1.738-7.96C-16.913-2.405-9.101 0 0 0" style="fill:#008cd3;fill-opacity:1;fill-rule:nonzero;stroke:none" transform="translate(132.882 309.11)"/><path d="M0 0c9.078 0 16.865-2.383 20.195-5.78a18.744 18.744 0 0 1 1.734 7.893c0 11.193-9.823 20.562-21.929 20.561-12.101 0-21.927-9.371-21.927-20.563 0-2.801.616-5.471 1.733-7.891C-16.869-2.383-9.076 0 0 0" style="fill:#008fd4;fill-opacity:1;fill-rule:nonzero;stroke:none" transform="translate(132.879 309.085)"/><path d="M0 0c9.054 0 16.821-2.362 20.143-5.73a18.508 18.508 0 0 1 1.729 7.826C21.872 13.189 12.075 22.51 0 22.51c-12.068 0-21.869-9.323-21.869-20.418 0-2.776.615-5.422 1.729-7.822C-16.824-2.362-9.052 0 0 0" style="fill:#0090d5;fill-opacity:1;fill-rule:nonzero;stroke:none" transform="translate(132.876 309.062)"/><path d="M0 0c9.031 0 16.776-2.342 20.088-5.68a18.217 18.217 0 0 1 1.724 7.755c0 10.997-9.768 20.27-21.812 20.27-12.038 0-21.812-9.274-21.812-20.272 0-2.751.613-5.375 1.724-7.753C-16.78-2.342-9.028 0 0 0" style="fill:#0092d7;fill-opacity:1;fill-rule:nonzero;stroke:none" transform="translate(132.874 309.04)"/><path d="M0 0c9.007 0 16.733-2.32 20.035-5.629a17.947 17.947 0 0 1 1.72 7.687c0 10.9-9.743 20.124-21.755 20.123-12.005 0-21.754-9.226-21.754-20.126 0-2.726.612-5.327 1.72-7.684C-16.735-2.32-9.004 0 0 0" style="fill:#0094d8;fill-opacity:1;fill-rule:nonzero;stroke:none" transform="translate(132.87 309.015)"/><path d="M0 0c8.983 0 16.689-2.299 19.982-5.579a17.718 17.718 0 0 1 1.715 7.62c0 10.8-9.716 19.976-21.697 19.975-11.972 0-21.696-9.176-21.696-19.978 0-2.704.61-5.281 1.715-7.617C-16.69-2.299-8.98 0 0 0" style="fill:#0096d9;fill-opacity:1;fill-rule:nonzero;stroke:none" transform="translate(132.867 308.992)"/><path d="M0 0c8.958 0 16.646-2.279 19.929-5.529a17.466 17.466 0 0 1 1.711 7.55c0 10.703-9.691 19.831-21.64 19.829-11.941 0-21.639-9.127-21.639-19.83 0-2.678.609-5.233 1.711-7.549C-16.646-2.279-8.956 0 0 0" style="fill:#0099db;fill-opacity:1;fill-rule:nonzero;stroke:none" transform="translate(132.865 308.969)"/><path d="M0 0c8.936 0 16.602-2.257 19.876-5.477a17.195 17.195 0 0 1 1.706 7.48c0 10.606-9.664 19.684-21.582 19.684-11.909 0-21.581-9.079-21.581-19.686 0-2.652.607-5.184 1.707-7.478C-16.602-2.257-8.931 0 0 0" style="fill:#009bdc;fill-opacity:1;fill-rule:nonzero;stroke:none" transform="translate(132.861 308.944)"/><path d="M0 0c8.91 0 16.557-2.236 19.823-5.427a16.957 16.957 0 0 1 1.701 7.411c0 10.509-9.637 19.539-21.524 19.538-11.878 0-21.523-9.03-21.523-19.539 0-2.629.605-5.138 1.701-7.41C-16.558-2.236-8.908 0 0 0" style="fill:#009dde;fill-opacity:1;fill-rule:nonzero;stroke:none" transform="translate(132.86 308.921)"/><path d="M0 0c8.887 0 16.513-2.214 19.77-5.376a16.708 16.708 0 0 1 1.697 7.343c0 10.411-9.613 19.392-21.467 19.391-11.846 0-21.465-8.982-21.465-19.393 0-2.603.603-5.09 1.696-7.341C-16.513-2.214-8.884 0 0 0" style="fill:#00a0df;fill-opacity:1;fill-rule:nonzero;stroke:none" transform="translate(132.856 308.897)"/><path d="M0 0c8.863 0 16.47-2.192 19.716-5.324a16.44 16.44 0 0 1 1.693 7.272c0 10.314-9.585 19.246-21.409 19.246-11.814 0-21.408-8.934-21.408-19.247 0-2.58.602-5.042 1.692-7.271C-16.469-2.192-8.86 0 0 0" style="fill:#00a2e0;fill-opacity:1;fill-rule:nonzero;stroke:none" transform="translate(132.853 308.873)"/><path d="M0 0c8.838 0 16.425-2.17 19.663-5.273a16.186 16.186 0 0 1 1.687 7.204c0 10.215-9.558 19.1-21.35 19.1-11.782 0-21.35-8.886-21.35-19.103 0-2.553.6-4.994 1.687-7.201C-16.425-2.17-8.836 0 0 0" style="fill:#00a4e1;fill-opacity:1;fill-rule:nonzero;stroke:none" transform="translate(132.85 308.85)"/><path d="M0 0c8.815 0 16.381-2.15 19.609-5.223a15.945 15.945 0 0 1 1.683 7.136c0 10.117-9.531 18.953-21.292 18.952-11.75 0-21.293-8.837-21.293-18.955 0-2.53.599-4.947 1.684-7.133C-16.38-2.15-8.812 0 0 0" style="fill:#00a6e3;fill-opacity:1;fill-rule:nonzero;stroke:none" transform="translate(132.848 308.826)"/><path d="M0 0c8.791 0 16.337-2.129 19.557-5.173a15.712 15.712 0 0 1 1.678 7.066C21.235 11.913 11.729 20.7 0 20.7c-11.718 0-21.234-8.788-21.234-18.808 0-2.506.596-4.9 1.677-7.065C-16.335-2.129-8.788 0 0 0" style="fill:#00a8e4;fill-opacity:1;fill-rule:nonzero;stroke:none" transform="translate(132.845 308.803)"/><path d="M0 0c8.767 0 16.293-2.108 19.503-5.122a15.467 15.467 0 0 1 1.675 6.997c0 9.923-9.48 18.661-21.178 18.661-11.687 0-21.177-8.739-21.177-18.662 0-2.481.595-4.853 1.674-6.996C-16.292-2.108-8.764 0 0 0" style="fill:#00abe5;fill-opacity:1;fill-rule:nonzero;stroke:none" transform="translate(132.842 308.78)"/><path d="M0 0c8.743 0 16.249-2.086 19.45-5.071a15.215 15.215 0 0 1 1.669 6.928c0 9.825-9.452 18.515-21.119 18.515-11.654 0-21.119-8.692-21.119-18.516 0-2.457.593-4.804 1.669-6.927C-16.247-2.086-8.74 0 0 0" style="fill:#00ade7;fill-opacity:1;fill-rule:nonzero;stroke:none" transform="translate(132.84 308.756)"/><path d="M0 0c8.718 0 16.205-2.065 19.396-5.021a14.975 14.975 0 0 1 1.665 6.859c0 9.729-9.427 18.369-21.061 18.369-11.624 0-21.062-8.642-21.062-18.37 0-2.431.592-4.756 1.665-6.858C-16.203-2.065-8.717 0 0 0" style="fill:#00b0e8;fill-opacity:1;fill-rule:nonzero;stroke:none" transform="translate(132.837 308.732)"/><path d="M0 0c8.694 0 16.161-2.044 19.344-4.969a14.73 14.73 0 0 1 1.66 6.79c0 9.629-9.401 18.221-21.004 18.221-11.591 0-21.003-8.593-21.003-18.223 0-2.406.589-4.709 1.659-6.788C-16.158-2.044-8.692 0 0 0" style="fill:#00b2e9;fill-opacity:1;fill-rule:nonzero;stroke:none" transform="translate(132.834 308.709)"/><path d="M0 0c8.671 0 16.117-2.024 19.291-4.919a14.501 14.501 0 0 1 1.655 6.721c0 9.532-9.375 18.076-20.946 18.076-11.56 0-20.946-8.544-20.946-18.078 0-2.381.588-4.66 1.655-6.719C-16.114-2.024-8.668 0 0 0" style="fill:#11b5eb;fill-opacity:1;fill-rule:nonzero;stroke:none" transform="translate(132.832 308.685)"/><path d="M0 0c8.646 0 16.072-2.002 19.237-4.868a14.253 14.253 0 0 1 1.651 6.651c0 9.437-9.348 17.932-20.888 17.932-11.528 0-20.889-8.496-20.889-17.932 0-2.356.587-4.613 1.651-6.651C-16.07-2.002-8.645 0 0 0" style="fill:#20b7ec;fill-opacity:1;fill-rule:nonzero;stroke:none" transform="translate(132.829 308.66)"/><path d="M0 0c8.622 0 16.028-1.981 19.183-4.817a14.021 14.021 0 0 1 1.647 6.584c0 9.336-9.322 17.782-20.83 17.782-11.497 0-20.832-8.446-20.832-17.782 0-2.334.585-4.569 1.647-6.584C-16.026-1.981-8.622 0 0 0" style="fill:#25b9ee;fill-opacity:1;fill-rule:nonzero;stroke:none" transform="translate(132.827 308.637)"/><path d="M0 0c8.599 0 15.985-1.96 19.13-4.767a13.791 13.791 0 0 1 1.643 6.514c0 9.24-9.296 17.638-20.773 17.638-11.464 0-20.772-8.398-20.772-17.638 0-2.308.583-4.52 1.641-6.514C-15.981-1.96-8.597 0 0 0" style="fill:#2ebcef;fill-opacity:1;fill-rule:nonzero;stroke:none" transform="translate(132.823 308.614)"/><path d="M0 0c8.575 0 15.94-1.938 19.077-4.715a13.558 13.558 0 0 1 1.637 6.445c0 9.142-9.269 17.492-20.714 17.492-11.432 0-20.715-8.35-20.715-17.492 0-2.284.581-4.472 1.637-6.445C-15.937-1.938-8.573 0 0 0" style="fill:#36bef0;fill-opacity:1;fill-rule:nonzero;stroke:none" transform="translate(132.82 308.59)"/><path d="M0 0c8.563 0 15.917-1.927 19.051-4.685a13.416 13.416 0 0 1 1.636 6.402c0 9.082-9.258 17.385-20.687 17.385-11.417 0-20.688-8.303-20.688-17.385 0-2.269.582-4.443 1.635-6.402C-15.916-1.927-8.561 0 0 0" style="fill:#46c0f0;fill-opacity:1;fill-rule:nonzero;stroke:none" transform="translate(132.82 308.537)"/><path d="M0 0c8.552 0 15.897-1.914 19.025-4.656a13.279 13.279 0 0 1 1.634 6.362c0 9.022-9.245 17.276-20.659 17.276-11.403 0-20.66-8.254-20.66-17.276 0-2.255.581-4.414 1.633-6.362C-15.894-1.914-8.55-.001 0 0" style="fill:#51c2f1;fill-opacity:1;fill-rule:nonzero;stroke:none" transform="translate(132.82 308.483)"/><path d="M0 0c8.54 0 15.875-1.9 19-4.624a13.137 13.137 0 0 1 1.631 6.32c0 8.962-9.233 17.168-20.631 17.168-11.387 0-20.631-8.206-20.631-17.168 0-2.24.579-4.385 1.629-6.32C-15.873-1.9-8.538 0 0 0" style="fill:#5ac4f1;fill-opacity:1;fill-rule:nonzero;stroke:none" transform="translate(132.82 308.428)"/><path d="M0 0c8.528 0 15.853-1.889 18.975-4.595 1.052 1.927 1.628 4.053 1.628 6.278 0 8.904-9.221 17.062-20.603 17.062-11.372 0-20.604-8.159-20.604-17.062 0-2.225.579-4.356 1.627-6.278C-15.851-1.889-8.526 0 0 0" style="fill:#65c7f2;fill-opacity:1;fill-rule:nonzero;stroke:none" transform="translate(132.82 308.375)"/><path d="M0 0c8.517 0 15.832-1.876 18.948-4.563C20-2.65 20.575-.54 20.575 1.672c0 8.844-9.208 16.954-20.575 16.954-11.357 0-20.576-8.11-20.576-16.954 0-2.211.578-4.326 1.625-6.235C-15.829-1.876-8.514 0 0 0" style="fill:#6dc9f3;fill-opacity:1;fill-rule:nonzero;stroke:none" transform="translate(132.82 308.321)"/><path d="M0 0c8.504 0 15.809-1.864 18.922-4.533 1.05 1.901 1.624 3.998 1.624 6.194 0 8.783-9.196 16.846-20.546 16.846-11.342 0-20.548-8.063-20.548-16.846 0-2.196.577-4.298 1.622-6.195C-15.808-1.864-8.504-.001 0 0" style="fill:#74cbf3;fill-opacity:1;fill-rule:nonzero;stroke:none" transform="translate(132.82 308.267)"/><path d="M0 0c8.493 0 15.788-1.853 18.896-4.503 1.048 1.887 1.623 3.971 1.623 6.152 0 8.726-9.184 16.739-20.519 16.739-11.327 0-20.52-8.014-20.52-16.739 0-2.181.576-4.269 1.62-6.152C-15.787-1.853-8.492 0 0 0" style="fill:#7dcdf4;fill-opacity:1;fill-rule:nonzero;stroke:none" transform="translate(132.82 308.213)"/><path d="M0 0c8.482 0 15.765-1.839 18.87-4.472 1.047 1.874 1.621 3.944 1.621 6.11 0 8.666-9.171 16.631-20.491 16.631-11.312 0-20.492-7.966-20.492-16.631 0-2.168.576-4.239 1.617-6.112C-15.765-1.839-8.48-.001 0 0" style="fill:#84d0f4;fill-opacity:1;fill-rule:nonzero;stroke:none" transform="translate(132.82 308.16)"/><path d="M0 0c8.47 0 15.743-1.828 18.844-4.442 1.044 1.861 1.618 3.917 1.618 6.068 0 8.606-9.16 16.523-20.462 16.523-11.298 0-20.465-7.918-20.465-16.523 0-2.153.575-4.21 1.615-6.069C-15.744-1.828-8.469-.001 0 0" style="fill:#8bd2f5;fill-opacity:1;fill-rule:nonzero;stroke:none" transform="translate(132.821 308.106)"/><path d="M0 0c8.458 0 15.722-1.813 18.819-4.411 1.042 1.848 1.616 3.889 1.616 6.026 0 8.547-9.147 16.416-20.435 16.416-11.282 0-20.436-7.87-20.436-16.416 0-2.137.575-4.181 1.613-6.026C-15.722-1.813-8.457-.001 0 0" style="fill:#93d4f5;fill-opacity:1;fill-rule:nonzero;stroke:none" transform="translate(132.82 308.05)"/><path d="M0 0c8.447 0 15.699-1.803 18.792-4.381 1.041 1.836 1.613 3.862 1.613 5.985 0 8.487-9.134 16.308-20.405 16.308-11.267 0-20.409-7.823-20.409-16.308 0-2.125.574-4.152 1.61-5.985C-15.701-1.803-8.446-.001 0 0" style="fill:#99d6f6;fill-opacity:1;fill-rule:nonzero;stroke:none" transform="translate(132.821 307.998)"/><path d="M0 0c8.434 0 15.676-1.79 18.767-4.35 1.038 1.823 1.61 3.834 1.61 5.943 0 8.427-9.122 16.2-20.377 16.2-11.252 0-20.381-7.774-20.381-16.2 0-2.11.573-4.125 1.607-5.943C-15.68-1.79-8.435-.001 0 0" style="fill:#a0d9f7;fill-opacity:1;fill-rule:nonzero;stroke:none" transform="translate(132.821 307.943)"/><path d="M0 0c8.423 0 15.656-1.778 18.74-4.32 1.037 1.81 1.61 3.807 1.61 5.9 0 8.367-9.111 16.093-20.35 16.093-11.238 0-20.353-7.726-20.353-16.093 0-2.095.572-4.094 1.605-5.901C-15.658-1.778-8.423-.002 0 0" style="fill:#a6dbf7;fill-opacity:1;fill-rule:nonzero;stroke:none" transform="translate(132.821 307.89)"/><path d="M0 0c8.412 0 15.635-1.765 18.716-4.289 1.034 1.796 1.606 3.78 1.606 5.859 0 8.308-9.098 15.986-20.322 15.986-11.222 0-20.324-7.679-20.324-15.986 0-2.08.571-4.066 1.602-5.86C-15.635-1.765-8.411-.001 0 0" style="fill:#abddf8;fill-opacity:1;fill-rule:nonzero;stroke:none" transform="translate(132.82 307.835)"/><path d="M0 0c8.401 0 15.612-1.753 18.689-4.258 1.033 1.783 1.605 3.752 1.605 5.816 0 8.248-9.086 15.878-20.294 15.878-11.207 0-20.296-7.631-20.296-15.878 0-2.066.57-4.035 1.6-5.817C-15.614-1.753-8.399-.001 0 0" style="fill:#b2e0f8;fill-opacity:1;fill-rule:nonzero;stroke:none" transform="translate(132.82 307.782)"/><path d="M0 0c8.388 0 15.59-1.741 18.664-4.228 1.029 1.77 1.601 3.725 1.601 5.773 0 8.19-9.073 15.772-20.265 15.772S-20.27 9.734-20.27 1.545c0-2.05.57-4.005 1.598-5.774C-15.593-1.741-8.388-.001 0 0" style="fill:#b7e2f9;fill-opacity:1;fill-rule:nonzero;stroke:none" transform="translate(132.821 307.728)"/><path d="M0 0c8.377 0 15.568-1.729 18.638-4.198 1.029 1.757 1.599 3.698 1.599 5.733 0 8.129-9.06 15.662-20.237 15.662-11.177 0-20.242-7.534-20.242-15.662 0-2.036.57-3.978 1.596-5.735C-15.572-1.729-8.376-.002 0 0" style="fill:#bce4f9;fill-opacity:1;fill-rule:nonzero;stroke:none" transform="translate(132.821 307.675)"/><path d="M0 0c8.365 0 15.546-1.715 18.612-4.166 1.026 1.744 1.597 3.671 1.597 5.69C20.209 9.595 11.16 17.08 0 17.08c-11.162 0-20.213-7.486-20.213-15.556 0-2.021.568-3.948 1.592-5.692C-15.551-1.715-8.365-.002 0 0" style="fill:#c1e5fa;fill-opacity:1;fill-rule:nonzero;stroke:none" transform="translate(132.821 307.62)"/><path d="M0 0c8.354 0 15.523-1.703 18.586-4.136 1.024 1.731 1.595 3.643 1.595 5.648 0 8.01-9.036 15.449-20.181 15.449-11.148 0-20.186-7.44-20.186-15.448 0-2.009.568-3.92 1.591-5.651C-15.529-1.703-8.353-.002 0 0" style="fill:#c7e8fa;fill-opacity:1;fill-rule:nonzero;stroke:none" transform="translate(132.821 307.566)"/><path d="M0 0c8.341 0 15.502-1.691 18.56-4.105 1.023 1.717 1.593 3.615 1.593 5.606 0 7.95-9.023 15.34-20.153 15.34-11.132 0-20.158-7.391-20.158-15.34 0-1.993.568-3.892 1.589-5.608C-15.508-1.691-8.342-.002 0 0" style="fill:#cceafb;fill-opacity:1;fill-rule:nonzero;stroke:none" transform="translate(132.821 307.513)"/><path d="M0 0c8.331 0 15.48-1.68 18.534-4.077 1.021 1.706 1.591 3.59 1.591 5.566 0 7.891-9.012 15.233-20.125 15.233-11.117 0-20.129-7.343-20.129-15.233 0-1.978.566-3.861 1.586-5.567C-15.486-1.68-8.33-.002 0 0" style="fill:#d0ecfb;fill-opacity:1;fill-rule:nonzero;stroke:none" transform="translate(132.821 307.459)"/><path d="M0 0c8.319 0 15.458-1.667 18.508-4.045 1.019 1.691 1.589 3.563 1.589 5.522 0 7.834-8.999 15.126-20.097 15.126-11.102 0-20.102-7.295-20.102-15.124 0-1.965.565-3.833 1.583-5.525C-15.465-1.667-8.318-.003 0 0" style="fill:#d6eefb;fill-opacity:1;fill-rule:nonzero;stroke:none" transform="translate(132.821 307.405)"/><path d="M0 0c8.307 0 15.436-1.654 18.482-4.015 1.017 1.679 1.587 3.535 1.587 5.48 0 7.774-8.987 15.019-20.069 15.019-11.087 0-20.074-7.246-20.074-15.018 0-1.948.565-3.803 1.581-5.482C-15.443-1.654-8.307-.003 0 0" style="fill:#dbf0fc;fill-opacity:1;fill-rule:nonzero;stroke:none" transform="translate(132.821 307.351)"/><path d="M0 0c8.295 0 15.415-1.642 18.457-3.984 1.015 1.665 1.584 3.507 1.584 5.439 0 7.712-8.975 14.91-20.041 14.91-11.072 0-20.046-7.199-20.046-14.91 0-1.934.564-3.774 1.579-5.44C-15.421-1.642-8.295-.002 0 0" style="fill:#e0f2fc;fill-opacity:1;fill-rule:nonzero;stroke:none" transform="translate(132.821 307.297)"/><path d="M0 0c8.284 0 15.394-1.63 18.432-3.955 1.012 1.655 1.581 3.481 1.581 5.397 0 7.655-8.963 14.804-20.013 14.804-11.057 0-20.019-7.151-20.019-14.802 0-1.921.564-3.746 1.577-5.4C-15.4-1.63-8.283-.003 0 0" style="fill:#e5f4fd;fill-opacity:1;fill-rule:nonzero;stroke:none" transform="translate(132.821 307.244)"/><path d="M0 0c8.272 0 15.371-1.618 18.405-3.924 1.011 1.641 1.58 3.453 1.58 5.355 0 7.595-8.95 14.696-19.985 14.696-11.042 0-19.991-7.103-19.991-14.695 0-1.906.564-3.716 1.574-5.357C-15.379-1.618-8.272-.003 0 0" style="fill:#e9f6fd;fill-opacity:1;fill-rule:nonzero;stroke:none" transform="translate(132.821 307.19)"/><path d="M0 0c8.261 0 15.35-1.604 18.379-3.893 1.01 1.628 1.578 3.427 1.578 5.314 0 7.535-8.938 14.587-19.957 14.587-11.027 0-19.962-7.055-19.962-14.586 0-1.892.562-3.687 1.571-5.317C-15.358-1.604-8.261-.003 0 0" style="fill:#eef8fe;fill-opacity:1;fill-rule:nonzero;stroke:none" transform="translate(132.821 307.135)"/><path d="M0 0c8.25 0 15.328-1.594 18.354-3.863 1.007 1.614 1.575 3.399 1.575 5.273 0 7.473-8.926 14.479-19.929 14.479-11.012 0-19.935-7.008-19.935-14.479 0-1.877.562-3.66 1.569-5.274C-15.335-1.594-8.249-.004 0 0" style="fill:#f2fafe;fill-opacity:1;fill-rule:nonzero;stroke:none" transform="translate(132.821 307.082)"/><path d="M0 0c8.237 0 15.306-1.58 18.328-3.832 1.005 1.602 1.573 3.373 1.573 5.23 0 7.416-8.914 14.373-19.901 14.373-10.997 0-19.906-6.959-19.906-14.373 0-1.862.56-3.628 1.566-5.231C-15.314-1.58-8.238-.003 0 0" style="fill:#f7fbfe;fill-opacity:1;fill-rule:nonzero;stroke:none" transform="translate(132.821 307.027)"/><path d="M0 0c8.226 0 15.283-1.567 18.301-3.801 1.004 1.589 1.573 3.345 1.573 5.188 0 7.356-8.903 14.265-19.874 14.265-10.981 0-19.878-6.912-19.878-14.264 0-1.848.559-3.6 1.564-5.19C-15.292-1.567-8.225-.003 0 0" style="fill:#fcfeff;fill-opacity:1;fill-rule:nonzero;stroke:none" transform="translate(132.821 306.973)"/><path d="M0 0c8.215 0 15.262-1.556 18.276-3.771 1.002 1.575 1.568 3.317 1.568 5.146 0 7.297-8.888 14.158-19.844 14.158-10.966 0-19.851-6.864-19.851-14.158 0-1.833.559-3.571 1.562-5.148C-15.271-1.556-8.214-.003 0 0" style="fill:#fff;fill-opacity:1;fill-rule:nonzero;stroke:none" transform="translate(132.821 306.92)"/></g><path d="M0 0c-7.19 0-13.86-1.218-19.368-3.281 3.302-7.413 10.73-12.574 19.371-12.574 8.637 0 16.065 5.164 19.373 12.574C13.869-1.218 7.188 0 0 0" style="fill:#007bc7;fill-opacity:1;fill-rule:nonzero;stroke:none" transform="matrix(4.49418 0 0 -4.49418 99.982 123.709)"/><path d="M0 0h4.587c.395-.041.733-.167 1.013-.625.216-.355.187-1.555.187-1.555v-8.252c.059-.781.433-2.13 3.274-2.241h21.046v2.912H12.163c-1.131-.071-1.247.487-1.275 1.173v6.913c0 .684-.093 1.307-.684 1.675h22.205v2.896H0Z" style="fill:#0062ac;fill-opacity:1;fill-rule:nonzero;stroke:none" transform="matrix(4.49418 0 0 -4.49418 537.681 127.046)"/><path d="M0 0c3.501 0 6.339-2.211 6.339-5.701 0-3.492-2.838-5.705-6.339-5.705-3.502 0-6.334 2.213-6.334 5.705C-6.334-2.211-3.502 0 0 0m0-14.348c6.39 0 11.569 3.485 11.569 8.652C11.569-.531 6.39 2.956 0 2.956c-6.387 0-11.564-3.487-11.564-8.652 0-5.167 5.177-8.652 11.564-8.652" style="fill:#0062ac;fill-opacity:1;fill-rule:nonzero;stroke:none" transform="matrix(4.49418 0 0 -4.49418 613.973 35.993)"/><path d="M0 0h13.8v-12.448h5.303V0h13.8v3.021H0Z" style="fill:#0062ac;fill-opacity:1;fill-rule:nonzero;stroke:none" transform="matrix(4.49418 0 0 -4.49418 227.05 132.341)"/><path d="M0 0c3.674 0 6.654-2.32 6.654-5.984 0-3.665-2.98-5.988-6.654-5.988-3.676 0-6.655 2.323-6.655 5.988C-6.655-2.32-3.676 0 0 0m0-15.064c6.707 0 12.146 3.663 12.146 9.086C12.146-.55 6.707 3.107 0 3.107c-6.708 0-12.147-3.657-12.147-9.085 0-5.423 5.439-9.086 12.147-9.086" style="fill:#0062ac;fill-opacity:1;fill-rule:nonzero;stroke:none" transform="matrix(4.49418 0 0 -4.49418 300.976 36.482)"/><path d="M0 0c0 2.899 1.95 4.732 4.354 4.732C6.76 4.732 8.708 2.899 8.708 0c0-2.9-1.948-4.733-4.354-4.733C1.95-4.733 0-2.9 0 0m2.151 9.687V8.633h-7.283V5.747h3.468C-3.489 4.408-4.643 2.418-4.643.001c0-4.522 4.03-7.576 9-7.576 4.969 0 8.997 3.054 8.997 7.576 0 2.417-1.154 4.407-2.978 5.746h3.222v2.886H6.691v1.628c0 .801-.253 1.235-1.353 1.235H1.734s.417-.246.417-1.809" style="fill:#0062ac;fill-opacity:1;fill-rule:nonzero;stroke:none" transform="matrix(4.49418 0 0 -4.49418 715.004 74.167)"/><path d="M0 0c-3.305 0-5.983 2.088-5.983 5.386S-3.305 10.771 0 10.771c3.307 0 5.987-2.087 5.987-5.385C5.987 2.088 3.307 0 0 0m0 13.654c-6.158 0-11.151-3.327-11.151-8.261C-11.151.459-6.158-2.868 0-2.868c6.161 0 11.156 3.327 11.156 8.261 0 4.934-4.995 8.261-11.156 8.261" style="fill:#0062ac;fill-opacity:1;fill-rule:nonzero;stroke:none" transform="matrix(4.49418 0 0 -4.49418 779.182 174.604)"/><path d="M0 0v-4.156h-1.926v5.867c0 .773-.261 1.189-1.408 1.189h-3.208s.431-.383.431-2.9v-15.084h4.185v7.936H0v-7.936h4.183V1.711c0 .773-.258 1.189-1.408 1.189h-3.21S0 2.48 0 0" style="fill:#0062ac;fill-opacity:1;fill-rule:nonzero;stroke:none" transform="matrix(4.49418 0 0 -4.49418 810.887 38.258)"/><path d="M0 0h4.958v34.105c0 .784-.52 1.207-1.688 1.207H-.443s.44-.344.44-2.943z" style="fill:#0062ac;fill-opacity:1;fill-rule:nonzero;stroke:none" transform="matrix(4.49418 0 0 -4.49418 492.775 183.935)"/><path d="M0 0c0-2.729-4.2-2.673-4.2-2.673h-12.169c-1.136-.073-1.25.484-1.279 1.171v7.344h10.505c1.164 0 1.425.427 1.425 1.21v10.986c0 .786-.261 1.2-1.425 1.2H-23.37v-2.92l12.485.001V8.774h-12.379s.443-.566.443-2.092V-3.349c.057-.783.433-2.136 3.281-2.245h14.241S.277-5.764.277-4" style="fill:#0062ac;fill-opacity:1;fill-rule:nonzero;stroke:none" transform="matrix(4.49418 0 0 -4.49418 492.805 116.598)"/><path d="M0 0c0-10.548-8.555-19.101-19.092-19.101-10.551 0-19.1 8.553-19.1 19.101 0 10.548 8.549 19.097 19.099 19.097C-8.555 19.097 0 10.548 0 0" style="fill:#fff;fill-opacity:1;fill-rule:nonzero;stroke:none" transform="matrix(1.33333 0 0 -1.33333 386.306 436.874)"/><path d="M0 0c10.054 0 18.199 8.15 18.199 18.201 0 10.055-8.145 18.202-18.201 18.202-10.053 0-18.202-8.147-18.202-18.201C-18.204 8.146-10.055 0 0 0" style="fill:#007bc7;fill-opacity:1;fill-rule:nonzero;stroke:none" transform="matrix(1.33333 0 0 -1.33333 360.846 461.06)"/><g clip-path="url(#c)" transform="matrix(1.33333 0 0 -1.33333 82.277 568.626)"><path d="M0 0c7.998 0 14.854-2.229 17.792-5.397a18.362 18.362 0 0 1 1.526 7.367c0 10.444-8.656 18.905-19.318 18.903-10.659 0-19.317-8.46-19.317-18.907 0-2.615.544-5.103 1.529-7.363C-14.859-2.229-7.996 0 0 0" style="fill:#007bc7;fill-opacity:1;fill-rule:nonzero;stroke:none" transform="translate(208.998 90.094)"/><path d="M0 0c7.979 0 14.816-2.21 17.746-5.354a18.156 18.156 0 0 1 1.523 7.308c0 10.36-8.634 18.778-19.269 18.777-10.632 0-19.267-8.419-19.267-18.781 0-2.595.542-5.062 1.523-7.304C-14.822-2.21-7.975 0 0 0" style="fill:#007dc8;fill-opacity:1;fill-rule:nonzero;stroke:none" transform="translate(208.996 90.074)"/><path d="M0 0c7.958 0 14.779-2.191 17.7-5.31a17.922 17.922 0 0 1 1.52 7.25c0 10.276-8.611 18.653-19.22 18.653-10.604 0-19.217-8.379-19.217-18.656 0-2.574.541-5.023 1.52-7.247C-14.783-2.191-7.954 0 0 0" style="fill:#007fca;fill-opacity:1;fill-rule:nonzero;stroke:none" transform="translate(208.994 90.053)"/><path d="M0 0c7.936 0 14.742-2.174 17.654-5.268a17.71 17.71 0 0 1 1.515 7.192c0 10.192-8.587 18.527-19.169 18.526-10.578 0-19.168-8.337-19.168-18.53 0-2.552.539-4.98 1.515-7.188C-14.746-2.174-7.935 0 0 0" style="fill:#0080cb;fill-opacity:1;fill-rule:nonzero;stroke:none" transform="translate(208.992 90.033)"/><path d="M0 0c7.918 0 14.704-2.153 17.609-5.223a17.464 17.464 0 0 1 1.513 7.13c0 10.112-8.568 18.404-19.122 18.403-10.55 0-19.117-8.294-19.117-18.405 0-2.53.537-4.939 1.511-7.128C-14.707-2.153-7.913 0 0 0" style="fill:#0082cc;fill-opacity:1;fill-rule:nonzero;stroke:none" transform="translate(208.988 90.012)"/><path d="M0 0c7.895 0 14.665-2.137 17.562-5.179a17.182 17.182 0 0 1 1.507 7.072c0 10.025-8.542 18.276-19.069 18.275-10.523 0-19.069-8.253-19.069-18.279 0-2.51.536-4.899 1.508-7.068C-14.669-2.137-7.894 0 0 0" style="fill:#0084cd;fill-opacity:1;fill-rule:nonzero;stroke:none" transform="translate(208.987 89.992)"/><path d="M0 0c7.875 0 14.628-2.119 17.518-5.138a17.017 17.017 0 0 1 1.504 7.014c0 9.941-8.522 18.151-19.022 18.15-10.496 0-19.019-8.21-19.019-18.153 0-2.489.535-4.859 1.504-7.011C-14.63-2.119-7.873 0 0 0" style="fill:#0086cf;fill-opacity:1;fill-rule:nonzero;stroke:none" transform="translate(208.984 89.973)"/><path d="M0 0c7.855 0 14.591-2.103 17.472-5.095a16.797 16.797 0 0 1 1.501 6.955c0 9.858-8.499 18.025-18.973 18.025-10.468 0-18.97-8.169-18.97-18.028 0-2.468.534-4.817 1.5-6.952C-14.592-2.103-7.852 0 0 0" style="fill:#0088d0;fill-opacity:1;fill-rule:nonzero;stroke:none" transform="translate(208.981 89.953)"/><path d="M0 0c7.833 0 14.552-2.082 17.425-5.049a16.528 16.528 0 0 1 1.496 6.894c0 9.774-8.474 17.9-18.921 17.899-10.442 0-18.921-8.126-18.921-17.901 0-2.447.532-4.778 1.496-6.892C-14.556-2.082-7.831 0 0 0" style="fill:#008ad2;fill-opacity:1;fill-rule:nonzero;stroke:none" transform="translate(208.98 89.932)"/><path d="M0 0c7.812 0 14.515-2.065 17.38-5.007a16.317 16.317 0 0 1 1.493 6.836c0 9.69-8.455 17.774-18.873 17.774-10.413 0-18.871-8.086-18.871-17.777 0-2.425.531-4.736 1.493-6.833C-14.517-2.065-7.811 0 0 0" style="fill:#008cd3;fill-opacity:1;fill-rule:nonzero;stroke:none" transform="translate(208.977 89.912)"/><path d="M0 0c7.793 0 14.476-2.046 17.335-4.962a16.085 16.085 0 0 1 1.488 6.776c0 9.607-8.43 17.649-18.823 17.649-10.386 0-18.821-8.044-18.821-17.65 0-2.405.529-4.697 1.488-6.775C-14.479-2.046-7.79 0 0 0" style="fill:#008fd4;fill-opacity:1;fill-rule:nonzero;stroke:none" transform="translate(208.975 89.89)"/><path d="M0 0c7.771 0 14.438-2.028 17.288-4.919a15.841 15.841 0 0 1 1.484 6.717c0 9.522-8.407 17.523-18.772 17.523-10.359 0-18.771-8.002-18.771-17.525 0-2.383.527-4.654 1.483-6.715C-14.44-2.028-7.77 0 0 0" style="fill:#0090d5;fill-opacity:1;fill-rule:nonzero;stroke:none" transform="translate(208.973 89.871)"/><path d="M0 0c7.75 0 14.4-2.01 17.243-4.874a15.634 15.634 0 0 1 1.48 6.656c0 9.439-8.386 17.399-18.723 17.398-10.333 0-18.722-7.96-18.722-17.4 0-2.361.526-4.614 1.479-6.654C-14.403-2.01-7.75 0 0 0" style="fill:#0092d7;fill-opacity:1;fill-rule:nonzero;stroke:none" transform="translate(208.97 89.85)"/><path d="M0 0c7.73 0 14.362-1.992 17.198-4.831a15.424 15.424 0 0 1 1.475 6.599C18.673 11.122 10.31 19.04 0 19.04c-10.305 0-18.672-7.92-18.672-17.276 0-2.34.525-4.573 1.476-6.595C-14.365-1.992-7.729 0 0 0" style="fill:#0094d8;fill-opacity:1;fill-rule:nonzero;stroke:none" transform="translate(208.967 89.83)"/><path d="M0 0c7.711 0 14.325-1.973 17.152-4.788a15.209 15.209 0 0 1 1.472 6.54c0 9.271-8.34 17.146-18.624 17.145-10.276 0-18.623-7.876-18.623-17.147 0-2.32.524-4.532 1.472-6.538C-14.326-1.973-7.708 0 0 0" style="fill:#0096d9;fill-opacity:1;fill-rule:nonzero;stroke:none" transform="translate(208.965 89.81)"/><path d="M0 0c7.689 0 14.287-1.956 17.106-4.746a14.998 14.998 0 0 1 1.468 6.48c0 9.188-8.318 17.022-18.574 17.021-10.25 0-18.574-7.834-18.574-17.022 0-2.297.523-4.491 1.469-6.479C-14.289-1.956-7.688 0 0 0" style="fill:#0099db;fill-opacity:1;fill-rule:nonzero;stroke:none" transform="translate(208.963 89.79)"/><path d="M0 0c7.669 0 14.25-1.937 17.062-4.701a14.783 14.783 0 0 1 1.463 6.422c0 9.102-8.294 16.894-18.525 16.894-10.222 0-18.523-7.793-18.523-16.898 0-2.276.521-4.449 1.465-6.418C-14.25-1.937-7.667 0 0 0" style="fill:#009bdc;fill-opacity:1;fill-rule:nonzero;stroke:none" transform="translate(208.96 89.77)"/><path d="M0 0c7.647 0 14.213-1.92 17.016-4.657a14.549 14.549 0 0 1 1.46 6.36c0 9.021-8.273 16.772-18.476 16.772-10.195 0-18.475-7.754-18.475-16.774 0-2.255.52-4.409 1.461-6.358C-14.212-1.92-7.646 0 0 0" style="fill:#009dde;fill-opacity:1;fill-rule:nonzero;stroke:none" transform="translate(208.958 89.75)"/><path d="M0 0c7.627 0 14.174-1.899 16.97-4.613a14.356 14.356 0 0 1 1.456 6.301c0 8.938-8.251 16.645-18.426 16.645-10.168 0-18.425-7.709-18.425-16.646 0-2.234.517-4.369 1.456-6.3C-14.174-1.899-7.626 0 0 0" style="fill:#00a0df;fill-opacity:1;fill-rule:nonzero;stroke:none" transform="translate(208.956 89.728)"/><path d="M0 0c7.607 0 14.135-1.882 16.923-4.57a14.112 14.112 0 0 1 1.452 6.242c0 8.852-8.227 16.519-18.375 16.519-10.141 0-18.376-7.669-18.376-16.52 0-2.214.517-4.328 1.452-6.241C-14.137-1.882-7.606 0 0 0" style="fill:#00a2e0;fill-opacity:1;fill-rule:nonzero;stroke:none" transform="translate(208.954 89.709)"/><path d="M0 0c7.586 0 14.098-1.862 16.877-4.525a13.905 13.905 0 0 1 1.448 6.183c0 8.769-8.205 16.395-18.325 16.395-10.114 0-18.326-7.628-18.326-16.398 0-2.192.514-4.287 1.449-6.18C-14.099-1.862-7.584 0 0 0" style="fill:#00a4e1;fill-opacity:1;fill-rule:nonzero;stroke:none" transform="translate(208.951 89.688)"/><path d="M0 0c7.567 0 14.06-1.845 16.833-4.483a13.703 13.703 0 0 1 1.445 6.125c0 8.683-8.183 16.269-18.278 16.268-10.085 0-18.276-7.585-18.276-16.271 0-2.17.514-4.245 1.445-6.122C-14.059-1.845-7.563 0 0 0" style="fill:#00a6e3;fill-opacity:1;fill-rule:nonzero;stroke:none" transform="translate(208.948 89.668)"/><path d="M0 0c7.546 0 14.023-1.827 16.788-4.44a13.51 13.51 0 0 1 1.438 6.064c0 8.602-8.157 16.144-18.226 16.144-10.058 0-18.227-7.543-18.227-16.145 0-2.149.513-4.204 1.441-6.063C-14.021-1.827-7.543 0 0 0" style="fill:#00a8e4;fill-opacity:1;fill-rule:nonzero;stroke:none" transform="translate(208.946 89.648)"/><path d="M0 0c7.525 0 13.984-1.811 16.74-4.397a13.272 13.272 0 0 1 1.439 6.006c0 8.517-8.138 16.017-18.179 16.017-10.031 0-18.177-7.501-18.177-16.018 0-2.129.511-4.166 1.436-6.005C-13.983-1.811-7.522 0 0 0" style="fill:#00abe5;fill-opacity:1;fill-rule:nonzero;stroke:none" transform="translate(208.943 89.629)"/><path d="M0 0c7.504 0 13.946-1.79 16.695-4.353a13.068 13.068 0 0 1 1.432 5.949c0 8.431-8.114 15.89-18.127 15.89-10.004 0-18.128-7.46-18.128-15.892 0-2.109.509-4.124 1.433-5.947C-13.946-1.79-7.502 0 0 0" style="fill:#00ade7;fill-opacity:1;fill-rule:nonzero;stroke:none" transform="translate(208.941 89.607)"/><path d="M0 0c7.483 0 13.909-1.773 16.648-4.31a12.848 12.848 0 0 1 1.431 5.888c0 8.35-8.093 15.767-18.079 15.767-9.977 0-18.078-7.418-18.078-15.769 0-2.086.508-4.082 1.429-5.886C-13.908-1.773-7.482 0 0 0" style="fill:#00b0e8;fill-opacity:1;fill-rule:nonzero;stroke:none" transform="translate(208.939 89.588)"/><path d="M0 0c7.462 0 13.872-1.753 16.602-4.265a12.627 12.627 0 0 1 1.426 5.828c0 8.266-8.07 15.641-18.028 15.641-9.95 0-18.029-7.376-18.029-15.641 0-2.067.506-4.042 1.425-5.828C-13.87-1.753-7.461 0 0 0" style="fill:#00b2e9;fill-opacity:1;fill-rule:nonzero;stroke:none" transform="translate(208.937 89.566)"/><path d="M0 0c7.443 0 13.834-1.737 16.557-4.223a12.448 12.448 0 0 1 1.423 5.77c0 8.182-8.048 15.516-17.98 15.516-9.922 0-17.979-7.334-17.979-15.517 0-2.044.504-4.001 1.42-5.769C-13.832-1.737-7.44 0 0 0" style="fill:#11b5eb;fill-opacity:1;fill-rule:nonzero;stroke:none" transform="translate(208.934 89.547)"/><path d="M0 0c7.42 0 13.794-1.718 16.511-4.178a12.244 12.244 0 0 1 1.418 5.709c0 8.101-8.024 15.392-17.929 15.392-9.895 0-17.93-7.292-17.93-15.392 0-2.022.503-3.96 1.417-5.709C-13.794-1.718-7.421 0 0 0" style="fill:#20b7ec;fill-opacity:1;fill-rule:nonzero;stroke:none" transform="translate(208.932 89.525)"/><path d="M0 0c7.401 0 13.759-1.7 16.465-4.135a12.017 12.017 0 0 1 1.415 5.652C17.88 9.53 9.879 16.78 0 16.78c-9.868 0-17.88-7.25-17.88-15.263 0-2.003.502-3.921 1.413-5.652C-13.755-1.7-7.399 0 0 0" style="fill:#25b9ee;fill-opacity:1;fill-rule:nonzero;stroke:none" transform="translate(208.93 89.506)"/><path d="M0 0c7.381 0 13.722-1.683 16.423-4.091A11.847 11.847 0 0 1 17.831 1.5c0 7.932-7.978 15.139-17.831 15.139-9.839 0-17.829-7.207-17.829-15.139 0-1.98.5-3.88 1.408-5.591C-13.716-1.683-7.378 0 0 0" style="fill:#2ebcef;fill-opacity:1;fill-rule:nonzero;stroke:none" transform="translate(208.926 89.486)"/><path d="M0 0c7.36 0 13.683-1.664 16.375-4.048a11.626 11.626 0 0 1 1.406 5.533c0 7.846-7.957 15.014-17.781 15.014-9.812 0-17.781-7.168-17.781-15.014 0-1.961.499-3.839 1.405-5.533C-13.679-1.664-7.358 0 0 0" style="fill:#36bef0;fill-opacity:1;fill-rule:nonzero;stroke:none" transform="translate(208.924 89.466)"/><path d="M0 0c7.349 0 13.664-1.653 16.353-4.021a11.518 11.518 0 0 1 1.404 5.497C17.757 9.271 9.81 16.397 0 16.397c-9.799 0-17.757-7.126-17.757-14.921 0-1.949.499-3.814 1.403-5.497C-13.661-1.653-7.349 0 0 0" style="fill:#46c0f0;fill-opacity:1;fill-rule:nonzero;stroke:none" transform="translate(208.924 89.419)"/><path d="M0 0c7.341 0 13.646-1.643 16.331-3.997a11.403 11.403 0 0 1 1.402 5.461c0 7.744-7.935 14.829-17.733 14.829-9.787 0-17.733-7.085-17.733-14.829 0-1.936.498-3.789 1.401-5.461C-13.643-1.643-7.339-.001 0 0" style="fill:#51c2f1;fill-opacity:1;fill-rule:nonzero;stroke:none" transform="translate(208.924 89.374)"/><path d="M0 0c7.331 0 13.627-1.633 16.308-3.971a11.29 11.29 0 0 1 1.401 5.426c0 7.693-7.924 14.736-17.709 14.736-9.774 0-17.709-7.043-17.709-14.736 0-1.923.498-3.763 1.398-5.426C-13.624-1.633-7.328 0 0 0" style="fill:#5ac4f1;fill-opacity:1;fill-rule:nonzero;stroke:none" transform="translate(208.924 89.327)"/><path d="M0 0c7.32 0 13.608-1.622 16.288-3.944.901 1.653 1.396 3.479 1.396 5.388C17.684 9.087 9.77 16.09 0 16.09c-9.761 0-17.685-7.003-17.685-14.646 0-1.909.497-3.739 1.397-5.388C-13.605-1.622-7.318 0 0 0" style="fill:#65c7f2;fill-opacity:1;fill-rule:nonzero;stroke:none" transform="translate(208.924 89.281)"/><path d="M0 0c7.311 0 13.588-1.609 16.264-3.917.903 1.643 1.397 3.454 1.397 5.354 0 7.589-7.904 14.552-17.661 14.552-9.748 0-17.661-6.963-17.661-14.552 0-1.898.496-3.714 1.394-5.354C-13.587-1.609-7.308 0 0 0" style="fill:#6dc9f3;fill-opacity:1;fill-rule:nonzero;stroke:none" transform="translate(208.924 89.234)"/><path d="M0 0c7.299 0 13.57-1.601 16.243-3.891.9 1.632 1.394 3.431 1.394 5.317 0 7.539-7.894 14.46-17.637 14.46-9.735 0-17.637-6.921-17.637-14.46 0-1.886.495-3.689 1.393-5.318C-13.568-1.601-7.299 0 0 0" style="fill:#74cbf3;fill-opacity:1;fill-rule:nonzero;stroke:none" transform="translate(208.924 89.189)"/><path d="M0 0c7.291 0 13.552-1.591 16.22-3.866.899 1.621 1.392 3.409 1.392 5.282C17.612 8.904 9.73 15.783 0 15.783c-9.722 0-17.613-6.88-17.613-14.367 0-1.873.495-3.666 1.39-5.282C-13.55-1.591-7.289 0 0 0" style="fill:#7dcdf4;fill-opacity:1;fill-rule:nonzero;stroke:none" transform="translate(208.924 89.143)"/><path d="M0 0c7.281 0 13.533-1.578 16.197-3.839.898 1.609 1.391 3.385 1.391 5.246 0 7.438-7.872 14.274-17.588 14.274-9.709 0-17.589-6.838-17.589-14.274 0-1.861.494-3.639 1.389-5.246C-13.531-1.578-7.279-.001 0 0" style="fill:#84d0f4;fill-opacity:1;fill-rule:nonzero;stroke:none" transform="translate(208.924 89.096)"/><path d="M0 0c7.271 0 13.513-1.569 16.175-3.813.897 1.598 1.388 3.362 1.388 5.209 0 7.387-7.861 14.182-17.563 14.182-9.697 0-17.566-6.796-17.566-14.182 0-1.848.494-3.614 1.386-5.209C-13.513-1.569-7.269-.001 0 0" style="fill:#8bd2f5;fill-opacity:1;fill-rule:nonzero;stroke:none" transform="translate(208.925 89.05)"/><path d="M0 0c7.261 0 13.496-1.557 16.153-3.785.894 1.587 1.387 3.338 1.387 5.172 0 7.337-7.851 14.091-17.54 14.091-9.683 0-17.541-6.756-17.541-14.091 0-1.834.493-3.588 1.385-5.172C-13.495-1.557-7.259-.001 0 0" style="fill:#93d4f5;fill-opacity:1;fill-rule:nonzero;stroke:none" transform="translate(208.924 89.002)"/><path d="M0 0c7.251 0 13.475-1.548 16.13-3.761.893 1.575 1.385 3.315 1.385 5.138 0 7.284-7.841 13.998-17.515 13.998-9.671 0-17.518-6.715-17.518-13.998 0-1.823.493-3.565 1.383-5.138C-13.477-1.548-7.25-.001 0 0" style="fill:#99d6f6;fill-opacity:1;fill-rule:nonzero;stroke:none" transform="translate(208.925 88.957)"/><path d="M0 0c7.239 0 13.456-1.537 16.108-3.734.892 1.565 1.383 3.291 1.383 5.101C17.491 8.6 9.662 15.272 0 15.272c-9.659 0-17.494-6.673-17.494-13.905 0-1.812.492-3.541 1.38-5.101C-13.458-1.537-7.24-.001 0 0" style="fill:#a0d9f7;fill-opacity:1;fill-rule:nonzero;stroke:none" transform="translate(208.925 88.911)"/><path d="M0 0c7.23 0 13.438-1.525 16.085-3.707.891 1.553 1.381 3.267 1.381 5.064 0 7.181-7.818 13.814-17.466 13.814-9.646 0-17.47-6.633-17.47-13.814 0-1.798.491-3.513 1.379-5.065C-13.44-1.525-7.229-.002 0 0" style="fill:#a6dbf7;fill-opacity:1;fill-rule:nonzero;stroke:none" transform="translate(208.925 88.864)"/><path d="M0 0c7.222 0 13.419-1.515 16.064-3.681.889 1.541 1.381 3.245 1.381 5.03 0 7.13-7.81 13.721-17.445 13.721-9.632 0-17.445-6.591-17.445-13.721 0-1.786.49-3.491 1.376-5.03C-13.42-1.515-7.218 0 0 0" style="fill:#abddf8;fill-opacity:1;fill-rule:nonzero;stroke:none" transform="translate(208.924 88.817)"/><path d="M0 0c7.21 0 13.402-1.505 16.043-3.655.885 1.531 1.377 3.22 1.377 4.993 0 7.08-7.798 13.629-17.42 13.629-9.618 0-17.421-6.551-17.421-13.629 0-1.774.49-3.464 1.373-4.993C-13.402-1.505-7.209-.002 0 0" style="fill:#b2e0f8;fill-opacity:1;fill-rule:nonzero;stroke:none" transform="translate(208.924 88.772)"/><path d="M0 0c7.2 0 13.381-1.494 16.02-3.629.884 1.521 1.375 3.197 1.375 4.956 0 7.029-7.788 13.537-17.395 13.537S-17.398 8.355-17.398 1.327c0-1.76.489-3.439 1.372-4.956C-13.384-1.494-7.2 0 0 0" style="fill:#b7e2f9;fill-opacity:1;fill-rule:nonzero;stroke:none" transform="translate(208.925 88.726)"/><path d="M0 0c7.19 0 13.362-1.483 15.998-3.604.881 1.508 1.373 3.174 1.373 4.921 0 6.977-7.778 13.444-17.371 13.444-9.594 0-17.374-6.468-17.374-13.444 0-1.748.488-3.415 1.369-4.922C-13.367-1.483-7.19-.003 0 0" style="fill:#bce4f9;fill-opacity:1;fill-rule:nonzero;stroke:none" transform="translate(208.925 88.68)"/><path d="M0 0c7.181 0 13.343-1.473 15.975-3.578.881 1.497 1.372 3.152 1.372 4.886C17.347 8.234 9.58 14.659 0 14.659c-9.581 0-17.35-6.426-17.35-13.351 0-1.737.488-3.39 1.368-4.886C-13.348-1.473-7.18-.003 0 0" style="fill:#c1e5fa;fill-opacity:1;fill-rule:nonzero;stroke:none" transform="translate(208.925 88.634)"/><path d="M0 0c7.169 0 13.326-1.462 15.953-3.551.879 1.487 1.369 3.127 1.369 4.849 0 6.876-7.756 13.26-17.322 13.26-9.568 0-17.326-6.385-17.326-13.259 0-1.724.487-3.364 1.365-4.851C-13.33-1.462-7.17-.002 0 0" style="fill:#c7e8fa;fill-opacity:1;fill-rule:nonzero;stroke:none" transform="translate(208.925 88.587)"/><path d="M0 0c7.159 0 13.307-1.452 15.931-3.524.877 1.474 1.367 3.103 1.367 4.813 0 6.823-7.746 13.166-17.298 13.166-9.555 0-17.302-6.343-17.302-13.166 0-1.712.487-3.341 1.363-4.814C-13.311-1.452-7.16-.003 0 0" style="fill:#cceafb;fill-opacity:1;fill-rule:nonzero;stroke:none" transform="translate(208.925 88.541)"/><path d="M0 0c7.149 0 13.288-1.441 15.908-3.5.876 1.464 1.366 3.082 1.366 4.777 0 6.774-7.735 13.077-17.274 13.077-9.542 0-17.278-6.304-17.278-13.077 0-1.697.486-3.314 1.361-4.777C-13.292-1.441-7.15-.002 0 0" style="fill:#d0ecfb;fill-opacity:1;fill-rule:nonzero;stroke:none" transform="translate(208.925 88.495)"/><path d="M0 0c7.14 0 13.268-1.431 15.886-3.472.876 1.452 1.364 3.058 1.364 4.74 0 6.724-7.724 12.983-17.25 12.983-9.529 0-17.254-6.262-17.254-12.981 0-1.687.485-3.291 1.358-4.744C-13.274-1.431-7.14-.003 0 0" style="fill:#d6eefb;fill-opacity:1;fill-rule:nonzero;stroke:none" transform="translate(208.925 88.448)"/><path d="M0 0c7.131 0 13.25-1.419 15.864-3.445.872 1.44 1.362 3.034 1.362 4.704 0 6.673-7.714 12.89-17.226 12.89-9.516 0-17.23-6.218-17.23-12.889 0-1.673.484-3.266 1.356-4.706C-13.255-1.419-7.13-.001 0 0" style="fill:#dbf0fc;fill-opacity:1;fill-rule:nonzero;stroke:none" transform="translate(208.925 88.401)"/><path d="M0 0c7.122 0 13.231-1.409 15.843-3.419.871 1.43 1.36 3.01 1.36 4.669 0 6.619-7.705 12.797-17.203 12.797-9.504 0-17.207-6.179-17.207-12.797 0-1.661.484-3.239 1.356-4.671C-13.237-1.409-7.12-.001 0 0" style="fill:#e0f2fc;fill-opacity:1;fill-rule:nonzero;stroke:none" transform="translate(208.925 88.356)"/><path d="M0 0c7.11 0 13.213-1.398 15.82-3.395.869 1.42 1.358 2.989 1.358 4.634 0 6.569-7.693 12.706-17.178 12.706-9.49 0-17.183-6.138-17.183-12.705 0-1.649.484-3.216 1.353-4.636C-13.219-1.398-7.109-.003 0 0" style="fill:#e5f4fd;fill-opacity:1;fill-rule:nonzero;stroke:none" transform="translate(208.925 88.31)"/><path d="M0 0c7.101 0 13.194-1.389 15.797-3.369.868 1.409 1.356 2.964 1.356 4.596 0 6.52-7.682 12.614-17.153 12.614-9.478 0-17.159-6.097-17.159-12.613 0-1.635.484-3.19 1.351-4.598C-13.2-1.389-7.101-.004 0 0" style="fill:#e9f6fd;fill-opacity:1;fill-rule:nonzero;stroke:none" transform="translate(208.925 88.265)"/><path d="M0 0c7.09 0 13.176-1.378 15.777-3.342.865 1.397 1.352 2.942 1.352 4.56C17.129 7.687 9.457 13.74 0 13.74c-9.464 0-17.135-6.056-17.135-12.52 0-1.624.483-3.165 1.35-4.564C-13.182-1.378-7.09-.004 0 0" style="fill:#eef8fe;fill-opacity:1;fill-rule:nonzero;stroke:none" transform="translate(208.925 88.218)"/><path d="M0 0c7.081 0 13.158-1.367 15.753-3.314.866 1.384 1.352 2.917 1.352 4.525 0 6.414-7.661 12.428-17.105 12.428-9.452 0-17.11-6.016-17.11-12.428 0-1.612.482-3.142 1.346-4.526C-13.163-1.367-7.081-.003 0 0" style="fill:#f2fafe;fill-opacity:1;fill-rule:nonzero;stroke:none" transform="translate(208.925 88.17)"/><path d="M0 0c7.071 0 13.138-1.356 15.731-3.289.863 1.375 1.352 2.894 1.352 4.49 0 6.364-7.652 12.335-17.083 12.335-9.438 0-17.087-5.973-17.087-12.335 0-1.599.482-3.115 1.345-4.492C-13.145-1.356-7.071-.002 0 0" style="fill:#f7fbfe;fill-opacity:1;fill-rule:nonzero;stroke:none" transform="translate(208.925 88.124)"/><path d="M0 0c7.061 0 13.118-1.345 15.708-3.262.863 1.364 1.351 2.871 1.351 4.453 0 6.313-7.642 12.245-17.059 12.245-9.426 0-17.062-5.933-17.062-12.244 0-1.588.48-3.09 1.342-4.455C-13.126-1.345-7.061-.002 0 0" style="fill:#fcfeff;fill-opacity:1;fill-rule:nonzero;stroke:none" transform="translate(208.925 88.077)"/><path d="M0 0c7.051 0 13.101-1.336 15.688-3.237.859 1.351 1.346 2.846 1.346 4.417 0 6.263-7.631 12.151-17.034 12.151-9.413 0-17.039-5.892-17.039-12.151 0-1.574.48-3.066 1.341-4.42C-13.108-1.336-7.051-.005 0 0" style="fill:#fff;fill-opacity:1;fill-rule:nonzero;stroke:none" transform="translate(208.925 88.033)"/></g><g clip-path="url(#d)" transform="matrix(1.33333 0 0 -1.33333 82.277 568.626)"><path d="M0 0c-6.171 0-11.896-1.046-16.625-2.817C-13.791-9.18-7.414-13.609.002-13.609c7.414 0 13.79 4.431 16.63 10.792C11.906-1.046 6.17 0 0 0" style="fill:#007bc7;fill-opacity:1;fill-rule:nonzero;stroke:none" transform="translate(208.924 94.284)"/><path d="M0 0h2.384a.626.626 0 0 0 .525-.325c.112-.185.098-.808.098-.808V-5.42c.03-.405.224-1.105 1.7-1.164h10.934v1.513H6.319c-.588-.036-.649.254-.663.609V-.87c0 .355-.047.68-.356.87h11.536v1.504H0Z" style="fill:#0062ac;fill-opacity:1;fill-rule:nonzero;stroke:none" transform="translate(209.721 60.913)"/><path d="M0 0c1.819 0 3.293-1.148 3.293-2.961 0-1.815-1.474-2.964-3.293-2.964-1.818 0-3.29 1.149-3.29 2.964C-3.29-1.148-1.818 0 0 0m0-7.453c3.319 0 6.011 1.81 6.011 4.494C6.011-.275 3.319 1.536 0 1.536c-3.317 0-6.008-1.811-6.008-4.495S-3.317-7.453 0-7.453" style="fill:#0062ac;fill-opacity:1;fill-rule:nonzero;stroke:none" transform="translate(218.54 71.438)"/><path d="M0 0h7.169v-6.466h2.754V0h7.17v1.57H0Z" style="fill:#0062ac;fill-opacity:1;fill-rule:nonzero;stroke:none" transform="translate(173.816 60.3)"/><path d="M0 0c1.908 0 3.456-1.206 3.456-3.108C3.456-5.013 1.908-6.22 0-6.22c-1.91 0-3.458 1.207-3.458 3.112C-3.458-1.206-1.91 0 0 0m0-7.826c3.483 0 6.309 1.903 6.309 4.72 0 2.82-2.826 4.719-6.309 4.719-3.485 0-6.311-1.899-6.311-4.719 0-2.817 2.826-4.72 6.311-4.72" style="fill:#0062ac;fill-opacity:1;fill-rule:nonzero;stroke:none" transform="translate(182.361 71.382)"/><path d="M0 0c0 1.506 1.013 2.458 2.261 2.458 1.249 0 2.262-.952 2.262-2.458 0-1.507-1.013-2.459-2.262-2.459C1.013-2.459 0-1.507 0 0m1.116 5.031v-.547h-3.782V2.985h1.802C-1.813 2.289-2.413 1.256-2.413 0c0-2.349 2.094-3.936 4.676-3.936 2.581 0 4.673 1.587 4.673 3.936 0 1.256-.598 2.289-1.546 2.985h1.673v1.499H3.476v.846c0 .417-.132.642-.704.642H.9s.216-.128.216-.941" style="fill:#0062ac;fill-opacity:1;fill-rule:nonzero;stroke:none" transform="translate(230.219 67.025)"/><path d="M0 0c-1.717 0-3.108 1.084-3.108 2.797S-1.717 5.595 0 5.595c1.718 0 3.11-1.085 3.11-2.798S1.718 0 0 0m0 7.092c-3.2 0-5.793-1.729-5.793-4.291C-5.793.237-3.2-1.49 0-1.49S5.795.237 5.795 2.801C5.795 5.363 3.2 7.092 0 7.092" style="fill:#0062ac;fill-opacity:1;fill-rule:nonzero;stroke:none" transform="translate(237.637 55.417)"/><path d="M0 0v-2.159h-1V.889c0 .402-.136.618-.731.618h-1.668s.224-.199.224-1.507v-7.835H-1v4.122h1v-4.122h2.173V.889c0 .402-.134.618-.732.618H-.226S0 1.288 0 0" style="fill:#0062ac;fill-opacity:1;fill-rule:nonzero;stroke:none" transform="translate(241.3 71.176)"/><path d="M0 0h2.575v17.718c0 .407-.27.626-.877.626H-.231s.229-.178.229-1.53z" style="fill:#0062ac;fill-opacity:1;fill-rule:nonzero;stroke:none" transform="translate(204.531 54.337)"/><path d="M0 0c0-1.417-2.182-1.389-2.182-1.389h-6.321c-.59-.037-.649.252-.664.61v3.814h5.458c.604 0 .739.222.739.629v5.707c0 .408-.135.623-.74.623h-8.43V8.478l6.486.001v-3.92h-6.431s.23-.294.23-1.086v-5.211c.03-.408.225-1.111 1.706-1.167h7.397s2.896-.088 2.896.828" style="fill:#0062ac;fill-opacity:1;fill-rule:nonzero;stroke:none" transform="translate(204.534 62.12)"/></g></svg>